<svg width="41" height="41" viewBox="0 0 41 41" fill="none" xmlns="http://www.w3.org/2000/svg">
<rect x="0.950439" y="0.948914" width="40" height="40" rx="20" fill="#F05749"/>
<mask id="mask0_34_19321" style="mask-type:luminance" maskUnits="userSpaceOnUse" x="10" y="10" width="21" height="21">
<path d="M30.9504 20.9489C30.9504 26.4719 26.4734 30.9489 20.9504 30.9489C15.4274 30.9489 10.9504 26.4719 10.9504 20.9489C10.9504 15.4259 15.4274 10.9489 20.9504 10.9489C26.4734 10.9489 30.9504 15.4259 30.9504 20.9489Z" fill="white"/>
<path fill-rule="evenodd" clip-rule="evenodd" d="M20.9504 16.1989C21.1494 16.1989 21.3401 16.2779 21.4808 16.4186C21.6214 16.5592 21.7004 16.75 21.7004 16.9489V20.6389L23.9804 22.9189C24.0541 22.9876 24.1132 23.0704 24.1542 23.1624C24.1952 23.2544 24.2173 23.3537 24.219 23.4544C24.2208 23.5551 24.2023 23.6551 24.1646 23.7485C24.1268 23.8419 24.0707 23.9267 23.9995 23.998C23.9283 24.0692 23.8434 24.1253 23.75 24.163C23.6566 24.2008 23.5566 24.2193 23.4559 24.2175C23.3552 24.2157 23.2559 24.1937 23.1639 24.1527C23.0719 24.1117 22.9891 24.0526 22.9204 23.9789L20.4204 21.4789C20.2797 21.3384 20.2006 21.1478 20.2004 20.9489V16.9489C20.2004 16.75 20.2795 16.5592 20.4201 16.4186C20.5608 16.2779 20.7515 16.1989 20.9504 16.1989Z" fill="black"/>
</mask>
<g mask="url(#mask0_34_19321)">
<path d="M8.95044 8.94891H32.9504V32.9489H8.95044V8.94891Z" fill="white"/>
</g>
</svg>
