<svg width="25" height="25" viewBox="0 0 25 25" fill="none" xmlns="http://www.w3.org/2000/svg">
<path d="M15.7097 15.248L15.2547 15.728C15.2547 15.728 14.1717 16.867 11.2167 13.756C8.26166 10.645 9.34466 9.50597 9.34466 9.50597L9.63166 9.20297C10.3377 8.45897 10.4047 7.26497 9.78766 6.39297L8.52766 4.60997C7.76366 3.52997 6.28866 3.38797 5.41366 4.30897L3.84466 5.95997C3.41166 6.41697 3.12166 7.00797 3.15666 7.66497C3.24666 9.34497 3.96466 12.958 7.96866 17.175C12.2157 21.645 16.2007 21.823 17.8297 21.662C18.3457 21.612 18.7937 21.333 19.1547 20.953L20.5747 19.457C21.5347 18.447 21.2647 16.717 20.0367 16.011L18.1267 14.911C17.3207 14.448 16.3397 14.584 15.7097 15.247M13.4137 2.57997C13.4295 2.48271 13.4643 2.38952 13.5161 2.30572C13.5679 2.22192 13.6357 2.14915 13.7157 2.09157C13.7957 2.03399 13.8862 1.99274 13.9821 1.97016C14.078 1.94757 14.1774 1.94411 14.2747 1.95997C14.2997 1.96497 14.3817 1.97997 14.4247 1.98997C14.5107 2.00797 14.628 2.03797 14.7767 2.07997C15.0737 2.16697 15.4887 2.30997 15.9867 2.53797C16.9827 2.99497 18.3077 3.79397 19.6837 5.16897C21.0597 6.54497 21.8587 7.87097 22.3157 8.86697C22.5437 9.36497 22.6857 9.77897 22.7727 10.077C22.8162 10.2268 22.8539 10.3782 22.8857 10.531L22.8907 10.562C22.9236 10.76 22.8774 10.963 22.7619 11.1273C22.6465 11.2916 22.4711 11.4039 22.2737 11.44C22.0779 11.4718 21.8774 11.4247 21.7163 11.3091C21.5551 11.1934 21.4463 11.0186 21.4137 10.823C21.3928 10.7125 21.3658 10.6034 21.3327 10.496C21.2305 10.1525 21.1035 9.817 20.9527 9.49197C20.5627 8.64197 19.8607 7.46797 18.6227 6.22997C17.3847 4.99197 16.2117 4.29097 15.3607 3.90097C15.036 3.75021 14.7008 3.62321 14.3577 3.52097C14.2524 3.49141 14.1464 3.46474 14.0397 3.44097C13.8434 3.40803 13.6678 3.29938 13.5507 3.13838C13.4337 2.97738 13.3845 2.77688 13.4137 2.57997Z" fill="white"/>
<path fill-rule="evenodd" clip-rule="evenodd" d="M13.6397 6.03009C13.6666 5.93533 13.712 5.84681 13.7732 5.76959C13.8344 5.69236 13.9102 5.62795 13.9963 5.58003C14.0823 5.53212 14.177 5.50163 14.2749 5.49031C14.3728 5.479 14.4719 5.48708 14.5667 5.51409L14.5697 5.51509L14.5727 5.51609L14.5807 5.51809L14.6007 5.52409L14.6567 5.54409C14.7013 5.55943 14.7603 5.58276 14.8337 5.61409C14.9797 5.67609 15.1787 5.77209 15.4237 5.91709C15.9127 6.20709 16.5807 6.68709 17.3657 7.47309C18.1507 8.25809 18.6317 8.92609 18.9217 9.41509C19.0667 9.66009 19.1627 9.85909 19.2247 10.0051C19.2579 10.0815 19.2879 10.1592 19.3147 10.2381L19.3197 10.2581L19.3227 10.2661V10.2691L19.3237 10.2701C19.3237 10.2701 19.3237 10.2721 18.6037 10.4781L19.3237 10.2721C19.3744 10.4613 19.3492 10.6629 19.2532 10.8337C19.1573 11.0046 18.9984 11.1311 18.8104 11.1862C18.6224 11.2413 18.4202 11.2207 18.2472 11.1287C18.0742 11.0368 17.9441 10.8808 17.8847 10.6941L17.8817 10.6841L17.8467 10.5961C17.7829 10.453 17.7108 10.3137 17.6307 10.1791C17.4077 9.80309 17.0047 9.23309 16.3047 8.53309C15.6047 7.83309 15.0357 7.43109 14.6587 7.20809C14.4967 7.11303 14.3283 7.02949 14.1547 6.95809L14.1447 6.95409C13.9558 6.8973 13.7968 6.76837 13.7023 6.59524C13.6078 6.42211 13.5853 6.2197 13.6397 6.03009Z" fill="white"/>
</svg>
