<svg width="41" height="41" viewBox="0 0 41 41" fill="none" xmlns="http://www.w3.org/2000/svg">
<path opacity="0.5" d="M16.9663 35.9327H24.3729C29.5746 35.9327 32.1763 35.9327 34.0446 34.7077C34.851 34.1796 35.5453 33.4977 36.0879 32.701C37.3363 30.8677 37.3363 28.3127 37.3363 23.206C37.3363 18.0994 37.3363 15.5444 36.0879 13.711C35.5453 12.9143 34.851 12.2325 34.0446 11.7044C32.8446 10.916 31.3413 10.6344 29.0396 10.5344C27.9413 10.5344 26.9963 9.71769 26.7813 8.65936C26.617 7.88414 26.19 7.18942 25.5727 6.69261C24.9553 6.1958 24.1854 5.92738 23.3929 5.93269H17.9463C16.2996 5.93269 14.8813 7.07436 14.5579 8.65936C14.3429 9.71769 13.3979 10.5344 12.2996 10.5344C9.9996 10.6344 8.49626 10.9177 7.2946 11.7044C6.48882 12.2326 5.79505 12.9145 5.25293 13.711C4.00293 15.5444 4.00293 18.0977 4.00293 23.206C4.00293 28.3144 4.00293 30.866 5.25126 32.701C5.79126 33.4944 6.4846 34.176 7.2946 34.7077C9.16293 35.9327 11.7646 35.9327 16.9663 35.9327Z" fill="#3B3F44"/>
<path d="M29.9293 16.3858C29.7486 16.3843 29.5692 16.4184 29.4016 16.4861C29.234 16.5539 29.0814 16.654 28.9525 16.7808C28.8235 16.9075 28.7209 17.0584 28.6503 17.2249C28.5797 17.3913 28.5425 17.57 28.541 17.7508C28.541 18.5041 29.1627 19.1141 29.9293 19.1141H31.781C32.5477 19.1141 33.171 18.5025 33.171 17.7508C33.1695 17.5699 33.1323 17.391 33.0616 17.2245C32.9909 17.0579 32.8881 16.9069 32.759 16.7802C32.6299 16.6534 32.4771 16.5533 32.3092 16.4856C32.1414 16.418 31.9619 16.384 31.781 16.3858H29.9293Z" fill="#3B3F44"/>
<path fill-rule="evenodd" clip-rule="evenodd" d="M20.6694 16.3857C16.8361 16.3857 13.7261 19.4391 13.7261 23.2041C13.7261 26.9691 16.8344 30.0224 20.6711 30.0224C24.5044 30.0224 27.6144 26.9707 27.6144 23.2057C27.6144 19.4407 24.5061 16.3857 20.6711 16.3857M20.6711 19.1141C18.3711 19.1141 16.5044 20.9457 16.5044 23.2041C16.5044 25.4624 18.3711 27.2957 20.6711 27.2957C22.9727 27.2957 24.8377 25.4641 24.8377 23.2041C24.8377 20.9457 22.9727 19.1141 20.6711 19.1141Z" fill="#3B3F44"/>
</svg>
