<svg width="41" height="41" viewBox="0 0 41 41" fill="none" xmlns="http://www.w3.org/2000/svg">
<path fill-rule="evenodd" clip-rule="evenodd" d="M37.3363 25.9328V30.9328C37.3363 34.0761 37.3363 35.6461 36.3596 36.6228C35.3829 37.5994 33.8129 37.5994 30.6696 37.5994C27.5263 37.5994 25.9563 37.5994 24.9796 36.6228C24.0029 35.6461 24.0029 34.0761 24.0029 30.9328V25.9328C24.0029 22.7894 24.0029 21.2194 24.9796 20.2428C25.9563 19.2661 27.5263 19.2661 30.6696 19.2661C33.8129 19.2661 35.3829 19.2661 36.3596 20.2428C37.3363 21.2194 37.3363 22.7894 37.3363 25.9328ZM27.7529 34.2661C27.7529 33.9346 27.8846 33.6166 28.119 33.3822C28.3535 33.1478 28.6714 33.0161 29.0029 33.0161H32.3363C32.6678 33.0161 32.9857 33.1478 33.2201 33.3822C33.4546 33.6166 33.5863 33.9346 33.5863 34.2661C33.5863 34.5976 33.4546 34.9156 33.2201 35.15C32.9857 35.3844 32.6678 35.5161 32.3363 35.5161H29.0029C28.6714 35.5161 28.3535 35.3844 28.119 35.15C27.8846 34.9156 27.7529 34.5976 27.7529 34.2661Z" fill="#3B3F44"/>
<path d="M14.0029 29.2658C9.28793 29.2658 6.93126 29.2658 5.46626 27.8008C4.51793 26.8525 4.12126 25.5291 4.00293 23.4325V22.5991H21.5296V23.4325C21.5029 24.1608 21.5029 24.9525 21.5029 25.7825V31.0825C21.5029 32.5241 21.5029 33.8475 21.6463 34.9225C21.8063 36.1075 22.1796 37.3608 23.2113 38.3891L23.2529 38.4325H14.0029C13.6714 38.4325 13.3535 38.3008 13.119 38.0663C12.8846 37.8319 12.7529 37.514 12.7529 37.1825C12.7529 36.8509 12.8846 36.533 13.119 36.2986C13.3535 36.0641 13.6714 35.9325 14.0029 35.9325H19.4196V29.2658H14.0029Z" fill="#3B3F44"/>
<path opacity="0.5" d="M17.3361 4.26611H24.0027C30.2877 4.26611 33.4311 4.26611 35.3827 6.21945C37.3344 8.17278 37.3361 11.3144 37.3361 17.5994V17.8294C36.4894 17.2744 35.5544 17.0294 34.6594 16.9111C33.5861 16.7661 32.2611 16.7661 30.8194 16.7661H30.5194C29.0777 16.7661 27.7544 16.7661 26.6794 16.9111C25.4944 17.0694 24.2411 17.4444 23.2127 18.4744C22.2327 19.4544 21.8461 20.6344 21.6727 21.7661V22.5994H4.00274V21.7661C3.99108 21.0161 4.00274 20.1861 4.00274 19.2661V17.5994C4.00274 11.3144 4.00274 8.17111 5.95608 6.21945C7.90941 4.26778 11.0511 4.26611 17.3361 4.26611Z" fill="#3B3F44"/>
</svg>
