<svg width="738" height="106" viewBox="0 0 738 106" fill="none" xmlns="http://www.w3.org/2000/svg">
<g clip-path="url(#clip0_6_491)">
<path d="M30.3154 34.1679C29.5874 34.1679 28.9061 34.0372 28.2714 33.7759C27.6461 33.5052 27.0954 33.1319 26.6194 32.6559C26.1434 32.1705 25.7701 31.6012 25.4994 30.9479C25.2288 30.2852 25.0934 29.5619 25.0934 28.7779C25.0934 27.9939 25.2288 27.2752 25.4994 26.6219C25.7701 25.9592 26.1434 25.3899 26.6194 24.9139C27.0954 24.4285 27.6461 24.0552 28.2714 23.7939C28.9061 23.5325 29.5874 23.4019 30.3154 23.4019C31.0434 23.4019 31.7201 23.5372 32.3454 23.8079C32.9801 24.0692 33.5354 24.4425 34.0114 24.9279C34.4874 25.4039 34.8608 25.9685 35.1314 26.6219C35.4021 27.2752 35.5374 27.9939 35.5374 28.7779C35.5374 29.5619 35.4021 30.2852 35.1314 30.9479C34.8608 31.6012 34.4874 32.1705 34.0114 32.6559C33.5354 33.1319 32.9801 33.5052 32.3454 33.7759C31.7201 34.0372 31.0434 34.1679 30.3154 34.1679ZM30.3154 33.1179C30.9221 33.1179 31.4728 33.0059 31.9674 32.7819C32.4714 32.5579 32.9054 32.2452 33.2694 31.8439C33.6334 31.4425 33.9134 30.9805 34.1094 30.4579C34.3148 29.9352 34.4174 29.3752 34.4174 28.7779C34.4174 28.1899 34.3148 27.6345 34.1094 27.1119C33.9134 26.5892 33.6334 26.1272 33.2694 25.7259C32.9054 25.3245 32.4714 25.0119 31.9674 24.7879C31.4728 24.5639 30.9221 24.4519 30.3154 24.4519C29.7088 24.4519 29.1534 24.5639 28.6494 24.7879C28.1548 25.0119 27.7254 25.3245 27.3614 25.7259C26.9974 26.1272 26.7128 26.5892 26.5074 27.1119C26.3114 27.6345 26.2134 28.1899 26.2134 28.7779C26.2134 29.3752 26.3114 29.9352 26.5074 30.4579C26.7128 30.9805 26.9974 31.4425 27.3614 31.8439C27.7254 32.2452 28.1594 32.5579 28.6634 32.7819C29.1674 33.0059 29.7181 33.1179 30.3154 33.1179ZM40.1984 34.1679C39.6758 34.1679 39.1998 34.0465 38.7704 33.8039C38.3411 33.5519 38.0004 33.2065 37.7484 32.7679C37.5058 32.3199 37.3844 31.8065 37.3844 31.2279V26.4959H38.4344V31.1019C38.4344 31.5032 38.5138 31.8579 38.6724 32.1659C38.8404 32.4645 39.0691 32.6979 39.3584 32.8659C39.6571 33.0339 39.9978 33.1179 40.3804 33.1179C40.7631 33.1179 41.1038 33.0339 41.4024 32.8659C41.7011 32.6885 41.9344 32.4412 42.1024 32.1239C42.2704 31.7972 42.3544 31.4099 42.3544 30.9619V26.4959H43.4044V33.9999H42.3544V32.5439L42.5924 32.5999C42.4151 33.0852 42.1118 33.4679 41.6824 33.7479C41.2531 34.0279 40.7584 34.1679 40.1984 34.1679ZM45.5638 33.9999V26.4959H46.6138V27.7279L46.4738 27.5459C46.6512 27.1912 46.9172 26.9112 47.2718 26.7059C47.6358 26.5005 48.0745 26.3979 48.5878 26.3979H49.0638V27.4479H48.4058C47.8645 27.4479 47.4305 27.6159 47.1038 27.9519C46.7772 28.2879 46.6138 28.7639 46.6138 29.3799V33.9999H45.5638ZM52.8272 33.9999V23.5699H56.4112C57.0925 23.5699 57.6899 23.7052 58.2032 23.9759C58.7165 24.2372 59.1132 24.6105 59.3932 25.0959C59.6825 25.5719 59.8272 26.1272 59.8272 26.7619C59.8272 27.3965 59.6825 27.9519 59.3932 28.4279C59.1132 28.9039 58.7165 29.2772 58.2032 29.5479C57.6992 29.8092 57.1019 29.9399 56.4112 29.9399H53.9472V33.9999H52.8272ZM53.9472 28.8899H56.4672C56.9152 28.8899 57.3072 28.8059 57.6432 28.6379C57.9792 28.4605 58.2405 28.2132 58.4272 27.8959C58.6139 27.5692 58.7072 27.1865 58.7072 26.7479C58.7072 26.3092 58.6139 25.9312 58.4272 25.6139C58.2405 25.2965 57.9792 25.0539 57.6432 24.8859C57.3072 24.7085 56.9152 24.6199 56.4672 24.6199H53.9472V28.8899ZM63.2788 34.1679C62.8028 34.1679 62.3781 34.0792 62.0048 33.9019C61.6314 33.7152 61.3374 33.4632 61.1228 33.1459C60.9081 32.8285 60.8008 32.4645 60.8008 32.0539C60.8008 31.6619 60.8848 31.3072 61.0528 30.9899C61.2208 30.6632 61.4821 30.3879 61.8368 30.1639C62.1914 29.9399 62.6441 29.7812 63.1948 29.6879L66.1348 29.1979V30.1499L63.4468 30.5979C62.9054 30.6912 62.5134 30.8639 62.2708 31.1159C62.0374 31.3679 61.9208 31.6665 61.9208 32.0119C61.9208 32.3479 62.0514 32.6325 62.3128 32.8659C62.5834 33.0992 62.9288 33.2159 63.3488 33.2159C63.8621 33.2159 64.3101 33.1085 64.6928 32.8939C65.0754 32.6699 65.3741 32.3712 65.5888 31.9979C65.8034 31.6245 65.9108 31.2092 65.9108 30.7519V28.8479C65.9108 28.3999 65.7474 28.0359 65.4208 27.7559C65.0941 27.4759 64.6694 27.3359 64.1468 27.3359C63.6894 27.3359 63.2881 27.4525 62.9428 27.6859C62.5974 27.9099 62.3408 28.2039 62.1728 28.5679L61.2208 28.0499C61.3608 27.7325 61.5801 27.4432 61.8788 27.1819C62.1868 26.9205 62.5368 26.7152 62.9288 26.5659C63.3208 26.4072 63.7268 26.3279 64.1468 26.3279C64.6974 26.3279 65.1828 26.4352 65.6028 26.6499C66.0321 26.8645 66.3634 27.1632 66.5968 27.5459C66.8394 27.9192 66.9608 28.3532 66.9608 28.8479V33.9999H65.9108V32.5019L66.0648 32.6559C65.9341 32.9359 65.7288 33.1925 65.4488 33.4259C65.1781 33.6499 64.8561 33.8319 64.4828 33.9719C64.1188 34.1025 63.7174 34.1679 63.2788 34.1679ZM69.1205 33.9999V26.4959H70.1705V27.7279L70.0305 27.5459C70.2078 27.1912 70.4738 26.9112 70.8285 26.7059C71.1925 26.5005 71.6311 26.3979 72.1445 26.3979H72.6205V27.4479H71.9625C71.4211 27.4479 70.9871 27.6159 70.6605 27.9519C70.3338 28.2879 70.1705 28.7639 70.1705 29.3799V33.9999H69.1205ZM76.7209 34.0839C76.0489 34.0839 75.5309 33.8879 75.1669 33.4959C74.8029 33.1039 74.6209 32.5439 74.6209 31.8159V27.5459H73.2349V26.4959H73.5849C73.9023 26.4959 74.1543 26.3932 74.3409 26.1879C74.5276 25.9732 74.6209 25.7072 74.6209 25.3899V24.7599H75.6709V26.4959H77.3229V27.5459H75.6709V31.8159C75.6709 32.0679 75.7083 32.2919 75.7829 32.4879C75.8576 32.6745 75.9836 32.8239 76.1609 32.9359C76.3476 33.0479 76.5949 33.1039 76.9029 33.1039C76.9776 33.1039 77.0663 33.0992 77.1689 33.0899C77.2716 33.0805 77.3603 33.0712 77.4349 33.0619V33.9999C77.3229 34.0279 77.1969 34.0465 77.0569 34.0559C76.9169 34.0745 76.8049 34.0839 76.7209 34.0839ZM79.2787 33.9999V26.4959H80.3287V27.9519L80.0907 27.8959C80.2774 27.4105 80.5807 27.0279 81.0007 26.7479C81.43 26.4679 81.9247 26.3279 82.4847 26.3279C83.0167 26.3279 83.4927 26.4492 83.9127 26.6919C84.342 26.9345 84.678 27.2705 84.9207 27.6999C85.1727 28.1199 85.2987 28.5959 85.2987 29.1279V33.9999H84.2487V29.5339C84.2487 29.0765 84.1647 28.6892 83.9967 28.3719C83.838 28.0545 83.6094 27.8119 83.3107 27.6439C83.0214 27.4665 82.6854 27.3779 82.3027 27.3779C81.92 27.3779 81.5794 27.4665 81.2807 27.6439C80.982 27.8119 80.7487 28.0592 80.5807 28.3859C80.4127 28.7032 80.3287 29.0859 80.3287 29.5339V33.9999H79.2787ZM90.7201 34.1679C90.0201 34.1679 89.3854 33.9999 88.8161 33.6639C88.2561 33.3185 87.8127 32.8472 87.4861 32.2499C87.1594 31.6525 86.9961 30.9759 86.9961 30.2199C86.9961 29.4639 87.1547 28.7965 87.4721 28.2179C87.7894 27.6299 88.2187 27.1679 88.7601 26.8319C89.3107 26.4959 89.9267 26.3279 90.6081 26.3279C91.1494 26.3279 91.6301 26.4305 92.0501 26.6359C92.4794 26.8319 92.8434 27.1025 93.1421 27.4479C93.4407 27.7839 93.6694 28.1665 93.8281 28.5959C93.9867 29.0159 94.0661 29.4499 94.0661 29.8979C94.0661 29.9912 94.0614 30.0985 94.0521 30.2199C94.0427 30.3319 94.0287 30.4485 94.0101 30.5699H87.6681V29.5899H93.4081L92.9041 30.0099C92.9881 29.4965 92.9274 29.0392 92.7221 28.6379C92.5261 28.2272 92.2414 27.9052 91.8681 27.6719C91.4947 27.4292 91.0747 27.3079 90.6081 27.3079C90.1414 27.3079 89.7074 27.4292 89.3061 27.6719C88.9141 27.9145 88.6061 28.2552 88.3821 28.6939C88.1581 29.1232 88.0694 29.6365 88.1161 30.2339C88.0694 30.8312 88.1627 31.3539 88.3961 31.8019C88.6387 32.2405 88.9654 32.5812 89.3761 32.8239C89.7961 33.0665 90.2441 33.1879 90.7201 33.1879C91.2707 33.1879 91.7327 33.0572 92.1061 32.7959C92.4794 32.5345 92.7827 32.2079 93.0161 31.8159L93.9121 32.2919C93.7627 32.6279 93.5341 32.9405 93.2261 33.2299C92.9181 33.5099 92.5494 33.7385 92.1201 33.9159C91.7001 34.0839 91.2334 34.1679 90.7201 34.1679ZM95.9174 33.9999V26.4959H96.9674V27.7279L96.8274 27.5459C97.0047 27.1912 97.2707 26.9112 97.6254 26.7059C97.9894 26.5005 98.428 26.3979 98.9414 26.3979H99.4174V27.4479H98.7594C98.218 27.4479 97.784 27.6159 97.4574 27.9519C97.1307 28.2879 96.9674 28.7639 96.9674 29.3799V33.9999H95.9174ZM103.252 34.1679C102.533 34.1679 101.903 33.9859 101.362 33.6219C100.82 33.2579 100.428 32.7632 100.186 32.1379L101.068 31.7179C101.282 32.1752 101.581 32.5392 101.964 32.8099C102.356 33.0805 102.785 33.2159 103.252 33.2159C103.7 33.2159 104.078 33.1085 104.386 32.8939C104.694 32.6699 104.848 32.3805 104.848 32.0259C104.848 31.7645 104.773 31.5592 104.624 31.4099C104.474 31.2512 104.302 31.1299 104.106 31.0459C103.91 30.9619 103.737 30.9012 103.588 30.8639L102.51 30.5559C101.819 30.3599 101.32 30.0845 101.012 29.7299C100.704 29.3752 100.55 28.9645 100.55 28.4979C100.55 28.0592 100.662 27.6765 100.886 27.3499C101.11 27.0232 101.413 26.7712 101.796 26.5939C102.178 26.4165 102.603 26.3279 103.07 26.3279C103.704 26.3279 104.278 26.4959 104.792 26.8319C105.314 27.1585 105.683 27.6159 105.898 28.2039L105.002 28.6239C104.815 28.2039 104.544 27.8772 104.19 27.6439C103.844 27.4012 103.457 27.2799 103.028 27.2799C102.608 27.2799 102.272 27.3872 102.02 27.6019C101.768 27.8165 101.642 28.0872 101.642 28.4139C101.642 28.6659 101.707 28.8665 101.838 29.0159C101.968 29.1652 102.118 29.2772 102.286 29.3519C102.463 29.4265 102.617 29.4825 102.748 29.5199L103.994 29.8839C104.6 30.0612 105.072 30.3365 105.408 30.7099C105.753 31.0832 105.926 31.5219 105.926 32.0259C105.926 32.4365 105.809 32.8052 105.576 33.1319C105.352 33.4585 105.039 33.7152 104.638 33.9019C104.236 34.0792 103.774 34.1679 103.252 34.1679Z" fill="#9098A2"/>
<g clip-path="url(#clip1_6_491)">
<g clip-path="url(#clip2_6_491)">
<path d="M36.1694 81.9999C42.797 81.9999 48.1694 76.6275 48.1694 69.9999V61.5999C48.1694 60.6451 47.7902 59.7294 47.115 59.0543C46.4399 58.3792 45.5242 57.9999 44.5694 57.9999H36.7694V63.2643C36.7694 64.4655 36.8426 65.7099 37.4726 66.7323C37.9237 67.465 38.527 68.0921 39.2417 68.5712C39.9565 69.0502 40.7659 69.3698 41.615 69.5085L41.8448 69.5457C41.9396 69.5781 42.0218 69.6393 42.08 69.7207C42.1383 69.8021 42.1696 69.8998 42.1696 69.9999C42.1696 70.1 42.1383 70.1976 42.08 70.2791C42.0218 70.3605 41.9396 70.4217 41.8448 70.4541L41.615 70.4913C40.3743 70.694 39.2286 71.2812 38.3397 72.1701C37.4508 73.0591 36.8635 74.2048 36.6608 75.4455L36.6236 75.6753C36.5913 75.77 36.5301 75.8523 36.4486 75.9105C36.3672 75.9687 36.2696 76 36.1694 76C36.0693 76 35.9717 75.9687 35.8903 75.9105C35.8088 75.8523 35.7476 75.77 35.7152 75.6753L35.678 75.4455C35.5394 74.5963 35.2197 73.7869 34.7407 73.0722C34.2617 72.3575 33.6345 71.7541 32.9018 71.3031C31.8794 70.6731 30.635 70.5999 29.4338 70.5999H24.1838C24.4976 76.9485 29.7434 81.9999 36.1694 81.9999Z" fill="#9EA5AD"/>
<path d="M24.1694 69.3999H29.4338C30.635 69.3999 31.8794 69.3267 32.9018 68.6967C33.701 68.2043 34.3738 67.5315 34.8662 66.7323C35.4962 65.7099 35.5694 64.4655 35.5694 63.2643V57.9999H27.7694C26.8147 57.9999 25.899 58.3792 25.2238 59.0543C24.5487 59.7294 24.1694 60.6451 24.1694 61.5999V69.3999ZM52.0424 59.1999C52.0424 59.5181 51.916 59.8234 51.691 60.0484C51.4659 60.2734 51.1607 60.3999 50.8424 60.3999C50.5242 60.3999 50.219 60.2734 49.9939 60.0484C49.7689 59.8234 49.6424 59.5181 49.6424 59.1999C49.6424 58.8816 49.7689 58.5764 49.9939 58.3513C50.219 58.1263 50.5242 57.9999 50.8424 57.9999C51.1607 57.9999 51.4659 58.1263 51.691 58.3513C51.916 58.5764 52.0424 58.8816 52.0424 59.1999ZM151.196 65.2623C154.551 65.2623 156.169 67.6053 156.169 70.3191V75.4161H152.659V70.9239C152.659 69.6939 152.21 68.6787 150.923 68.6787C149.636 68.6787 149.207 69.6939 149.207 70.9239V75.4155H145.696V70.9239C145.696 69.6939 145.267 68.6787 143.98 68.6787C142.693 68.6787 142.244 69.6939 142.244 70.9239V75.4155H138.734V70.3185C138.734 67.6047 140.352 65.2617 143.707 65.2617C145.54 65.2617 146.866 65.9841 147.471 67.1751C148.114 65.9841 149.519 65.2611 151.196 65.2611V65.2623ZM132.426 72.2919C133.557 72.2919 134.044 71.2569 134.044 70.0263V65.6523H137.554V70.4559C137.554 73.3263 135.877 75.7089 132.426 75.7089C128.973 75.7089 127.296 73.3269 127.296 70.4559V65.6523H130.807V70.0263C130.807 71.2563 131.294 72.2919 132.426 72.2919ZM122.134 75.7281C119.931 75.7281 118.507 74.9667 117.668 73.4829L120.204 72.0573C120.555 72.6819 121.081 72.9945 121.959 72.9945C122.68 72.9945 123.012 72.7407 123.012 72.4281C123.012 71.2371 117.863 72.4479 117.863 68.6601C117.863 66.8241 119.423 65.3403 122.076 65.3403C124.396 65.3403 125.664 66.4725 126.23 67.5663L123.694 69.0111C123.48 68.4255 122.817 68.0739 122.154 68.0739C121.647 68.0739 121.374 68.2887 121.374 68.5815C121.374 69.7923 126.522 68.6793 126.522 72.3501C126.522 74.4003 124.513 75.7281 122.134 75.7281ZM109.869 79.9071H106.359V70.5147C106.359 67.5267 108.601 65.3595 111.722 65.3595C114.765 65.3595 117.085 67.6833 117.085 70.5147C117.085 73.6389 115.018 75.7089 111.917 75.7089C111.195 75.7089 110.474 75.4941 109.869 75.1617V79.9071ZM111.722 72.4089C112.834 72.4089 113.575 71.5497 113.575 70.5339C113.575 69.4995 112.834 68.6595 111.722 68.6595C110.61 68.6595 109.869 69.4995 109.869 70.5345C109.869 71.5497 110.61 72.4089 111.722 72.4089ZM102.842 64.6179C101.691 64.6179 100.736 63.6609 100.736 62.5089C100.736 61.3569 101.691 60.3999 102.842 60.3999C103.993 60.3999 104.949 61.3569 104.949 62.5089C104.949 63.6609 103.993 64.6179 102.842 64.6179ZM101.087 65.6523H104.598V75.4161H101.087V65.6523ZM94.3514 75.7089C91.3088 75.7089 88.988 73.3659 88.988 70.5147C88.988 67.6833 91.3088 65.3403 94.3514 65.3403C97.394 65.3403 99.7148 67.6833 99.7148 70.5147C99.7148 73.3659 97.394 75.7089 94.3514 75.7089ZM94.3514 72.4089C95.4632 72.4089 96.2042 71.5497 96.2042 70.5339C96.2042 69.4995 95.4632 68.6403 94.3514 68.6403C93.2396 68.6403 92.4986 69.4995 92.4986 70.5339C92.4986 71.5497 93.2396 72.4089 94.3514 72.4089ZM82.3592 80.1999C79.9412 80.1999 78.1856 79.1259 77.2886 77.2119L80.1944 75.6501C80.5064 76.3143 81.0914 76.9977 82.3004 76.9977C83.5688 76.9977 84.407 76.1967 84.5048 74.7909C84.0368 75.2013 83.2952 75.5133 82.184 75.5133C79.4726 75.5133 77.288 73.4241 77.288 70.4949C77.288 67.6641 79.6094 65.3595 82.652 65.3595C85.7726 65.3595 88.0154 67.5273 88.0154 70.5147V74.3811C88.0154 77.8959 85.577 80.1999 82.3592 80.1999ZM82.5932 72.2139C83.6462 72.2139 84.446 71.4909 84.446 70.4169C84.446 69.3627 83.6468 68.6595 82.5932 68.6595C81.5594 68.6595 80.7404 69.3627 80.7404 70.4175C80.7404 71.4915 81.5594 72.2133 82.5932 72.2133V72.2139ZM71.3336 75.7089C68.291 75.7089 65.9696 73.3659 65.9696 70.5147C65.9696 67.6833 68.291 65.3403 71.3336 65.3403C74.3756 65.3403 76.697 67.6833 76.697 70.5147C76.697 73.3659 74.3762 75.7089 71.3336 75.7089ZM71.3336 72.4089C72.4454 72.4089 73.1864 71.5497 73.1864 70.5339C73.1864 69.4995 72.4454 68.6403 71.3336 68.6403C70.2218 68.6403 69.4808 69.4995 69.4808 70.5339C69.4808 71.5497 70.2218 72.4089 71.3336 72.4089ZM59.5772 62.2359V72.0963H65.3894V75.4161H59.0894C56.8664 75.4161 55.9694 74.2443 55.9694 72.3891V62.2359H59.5772Z" fill="#9EA5AD"/>
</g>
<g clip-path="url(#clip3_6_491)">
<path d="M261.583 75.7142H264.38V65.161H261.583V75.7142ZM261.583 63.5153H264.38V61.0056H261.583V63.5153Z" fill="#9EA5AD"/>
<path d="M266.183 79.1701H268.981V74.521H269.022C269.618 75.4261 270.586 76.0227 272.066 76.0227C274.782 76.0227 276.634 73.8627 276.634 70.4479C276.634 67.1564 274.844 64.873 272.046 64.873C270.606 64.873 269.618 65.5519 268.94 66.4776H268.878V65.161H266.183V79.1701ZM271.47 73.6981C269.804 73.6981 268.919 72.4433 268.919 70.5301C268.919 68.6376 269.618 67.1359 271.367 67.1359C273.095 67.1359 273.794 68.5347 273.794 70.5301C273.794 72.5256 272.89 73.6981 271.47 73.6981Z" fill="#9EA5AD"/>
<path d="M282.214 76.0227C284.848 76.0227 286.658 74.7473 286.658 72.6284C286.658 70.1599 284.704 69.6661 282.934 69.2959C281.432 68.9873 280.034 68.905 280.034 67.9999C280.034 67.2387 280.754 66.8273 281.844 66.8273C283.037 66.8273 283.757 67.2387 283.88 68.3701H286.411C286.205 66.2513 284.662 64.873 281.885 64.873C279.478 64.873 277.586 65.9633 277.586 68.2467C277.586 70.5507 279.437 71.065 281.33 71.4353C282.77 71.7233 284.107 71.8261 284.107 72.8341C284.107 73.5747 283.408 74.0479 282.173 74.0479C280.918 74.0479 280.054 73.513 279.869 72.2993H277.277C277.442 74.5416 279.149 76.0227 282.214 76.0227Z" fill="#9EA5AD"/>
<path d="M297.279 75.7142V65.161H294.482V71.2502C294.482 72.649 293.679 73.6364 292.363 73.6364C291.17 73.6364 290.615 72.9576 290.615 71.7233V65.161H287.837V72.1964C287.837 74.5004 289.154 76.0022 291.499 76.0022C292.98 76.0022 293.803 75.4468 294.523 74.4799H294.585V75.7142H297.279Z" fill="#9EA5AD"/>
<path d="M299.089 75.7141H301.887V69.5839C301.887 68.185 302.648 67.2799 303.78 67.2799C304.808 67.2799 305.405 67.897 305.405 69.0901V75.7141H308.203V69.5839C308.203 68.185 308.923 67.2799 310.095 67.2799C311.124 67.2799 311.72 67.897 311.72 69.0901V75.7141H314.518V68.617C314.518 66.313 313.263 64.873 311.041 64.873C309.704 64.873 308.593 65.5724 307.873 66.7244H307.832C307.318 65.6136 306.248 64.873 304.911 64.873C303.451 64.873 302.422 65.6136 301.846 66.5804H301.784V65.161H299.089V75.7141Z" fill="#9EA5AD"/>
<path d="M188.664 75.7142H191.462V61.0056H188.664V75.7142Z" fill="#9EA5AD"/>
<path d="M198.302 76.0227C201.573 76.0227 203.816 73.5953 203.816 70.4479C203.816 67.3004 201.573 64.873 198.302 64.873C195.032 64.873 192.789 67.3004 192.789 70.4479C192.789 73.5953 195.032 76.0227 198.302 76.0227ZM198.302 73.8833C196.574 73.8833 195.628 72.505 195.628 70.4479C195.628 68.3907 196.574 66.9919 198.302 66.9919C200.01 66.9919 200.977 68.3907 200.977 70.4479C200.977 72.505 200.01 73.8833 198.302 73.8833Z" fill="#9EA5AD"/>
<path d="M209.765 79.3141C211.329 79.3141 212.686 78.9439 213.571 78.121C214.353 77.401 214.826 76.393 214.826 74.9119V65.161H212.131V66.2719H212.09C211.452 65.3873 210.485 64.873 209.169 64.873C206.494 64.873 204.602 66.889 204.602 70.0364C204.602 73.225 206.906 75.0764 209.251 75.0764C210.588 75.0764 211.39 74.5416 212.007 73.8421H212.069V74.9941C212.069 76.4341 211.308 77.1953 209.724 77.1953C208.428 77.1953 207.831 76.681 207.605 76.0227H204.828C205.116 78.0799 206.885 79.3141 209.765 79.3141ZM209.724 72.8341C208.284 72.8341 207.338 71.785 207.338 69.9953C207.338 68.2261 208.284 67.1153 209.703 67.1153C211.39 67.1153 212.213 68.4319 212.213 69.9747C212.213 71.5381 211.493 72.8341 209.724 72.8341Z" fill="#9EA5AD"/>
<path d="M221.626 76.0227C224.897 76.0227 227.139 73.5953 227.139 70.4479C227.139 67.3004 224.897 64.873 221.626 64.873C218.355 64.873 216.113 67.3004 216.113 70.4479C216.113 73.5953 218.355 76.0227 221.626 76.0227ZM221.626 73.8833C219.898 73.8833 218.952 72.505 218.952 70.4479C218.952 68.3907 219.898 66.9919 221.626 66.9919C223.334 66.9919 224.301 68.3907 224.301 70.4479C224.301 72.505 223.334 73.8833 221.626 73.8833Z" fill="#9EA5AD"/>
<path d="M315.534 63.4284C315.534 62.955 315.918 62.5713 316.392 62.5713H318.106C318.579 62.5713 318.963 62.955 318.963 63.4284C318.963 63.9018 318.579 64.2856 318.106 64.2856H316.392C315.918 64.2856 315.534 63.9018 315.534 63.4284Z" fill="#9EA5AD"/>
<path fill-rule="evenodd" clip-rule="evenodd" d="M244.106 57.9999C250.733 57.9999 256.106 63.3725 256.106 69.9999C256.106 76.6273 250.733 81.9999 244.106 81.9999C237.479 81.9999 232.106 76.6273 232.106 69.9999C232.106 63.3725 237.479 57.9999 244.106 57.9999ZM243.672 58.8978C242.303 59.0905 241 60.1905 239.988 62.0303C239.694 62.564 239.429 63.1536 239.199 63.7901C240.575 63.4444 242.086 63.2405 243.672 63.209V58.8978ZM238.184 64.0784C238.471 63.1776 238.822 62.3489 239.228 61.6123C239.729 60.7002 240.325 59.9126 240.995 59.3077C237.348 60.367 234.473 63.242 233.414 66.8893C234.019 66.2186 234.806 65.6232 235.718 65.1216C236.455 64.7165 237.284 64.3653 238.184 64.0784ZM237.896 65.0925C237.55 66.4685 237.347 67.9799 237.315 69.5661H233.004C233.197 68.1971 234.297 66.8936 236.136 65.8817C236.67 65.5882 237.26 65.3234 237.896 65.0925ZM238.183 69.5661C238.219 67.8351 238.468 66.2099 238.88 64.774C240.316 64.3617 241.941 64.1124 243.672 64.0766V65.9504C243.026 67.6036 241.709 68.9206 240.056 69.5661H238.183ZM237.315 70.4336H233.004C233.197 71.8026 234.297 73.1061 236.136 74.118C236.67 74.4116 237.26 74.6764 237.896 74.9072C237.55 73.5313 237.347 72.0198 237.315 70.4336ZM238.88 75.2258C238.468 73.7898 238.219 72.1647 238.183 70.4336H240.056C241.709 71.0792 243.026 72.3962 243.672 74.0494V75.9231C241.941 75.8873 240.316 75.6381 238.88 75.2258ZM238.184 75.9214C237.284 75.6344 236.455 75.2833 235.718 74.8781C234.806 74.3765 234.019 73.7812 233.414 73.1105C234.473 76.7578 237.348 79.6328 240.995 80.692C240.325 80.0871 239.729 79.2995 239.228 78.3875C238.822 77.6508 238.471 76.8221 238.184 75.9214ZM243.672 81.1019C242.303 80.9093 241 79.8092 239.988 77.9694C239.694 77.4358 239.429 76.8462 239.199 76.2096C240.575 76.5554 242.086 76.7592 243.672 76.7907V81.1019ZM247.217 80.692C247.887 80.0871 248.483 79.2995 248.984 78.3875C249.389 77.6508 249.741 76.8221 250.028 75.9214C250.928 75.6344 251.757 75.2833 252.494 74.8781C253.406 74.3765 254.193 73.7812 254.798 73.1105C253.739 76.7578 250.864 79.6328 247.217 80.692ZM249.014 76.2096C248.783 76.8462 248.517 77.4358 248.224 77.9694C247.212 79.8092 245.909 80.9093 244.54 81.1019V76.7907C246.126 76.7592 247.637 76.5554 249.014 76.2096ZM250.316 74.9072C250.952 74.6764 251.542 74.4116 252.075 74.118C253.916 73.1062 255.015 71.8026 255.208 70.4336H250.897C250.865 72.0198 250.661 73.5313 250.316 74.9072ZM250.029 70.4336C249.993 72.1647 249.744 73.7898 249.332 75.2258C247.896 75.6381 246.271 75.8873 244.54 75.9231V74.0508C245.185 72.3969 246.503 71.0793 248.156 70.4336H250.029ZM250.897 69.5661H255.208C255.015 68.1971 253.916 66.8936 252.075 65.8817C251.542 65.5882 250.952 65.3234 250.316 65.0925C250.661 66.4685 250.865 67.9799 250.897 69.5661ZM249.332 64.774C249.744 66.2099 249.993 67.8351 250.029 69.5661H248.156C246.503 68.9204 245.185 67.6028 244.54 65.949V64.0766C246.271 64.1124 247.896 64.3617 249.332 64.774ZM250.028 64.0784C250.928 64.3653 251.757 64.7165 252.494 65.1216C253.406 65.6232 254.193 66.2186 254.798 66.8893C253.739 63.242 250.864 60.367 247.217 59.3077C247.887 59.9126 248.483 60.7002 248.984 61.6123C249.389 62.3489 249.741 63.1776 250.028 64.0784ZM244.54 58.8978C245.909 59.0905 247.212 60.1905 248.224 62.0303C248.517 62.564 248.783 63.1536 249.014 63.7901C247.637 63.4444 246.126 63.2405 244.54 63.209V58.8978Z" fill="#9EA5AD"/>
</g>
<g clip-path="url(#clip4_6_491)">
<path fill-rule="evenodd" clip-rule="evenodd" d="M385.528 59.5971C385.528 58.7838 386.194 58.1245 387.017 58.1245H389.61C390.195 58.1245 390.762 58.3251 391.215 58.6922L392.004 59.3321L392.024 59.3499C392.042 59.3439 392.06 59.3379 392.078 59.3321C393.502 58.8812 395.229 58.7954 396.991 58.7954C398.754 58.7954 400.481 58.8812 401.904 59.3321C401.922 59.3379 401.941 59.3439 401.959 59.3499L401.979 59.3321L402.767 58.6922C403.22 58.3251 403.787 58.1245 404.372 58.1245H406.966C407.788 58.1245 408.455 58.7838 408.455 59.5971V60.5075C408.455 61.2118 408.155 61.8836 407.628 62.358L406.992 62.9316C406.681 63.2117 406.308 63.4155 405.903 63.5266L405.753 63.5679C406.342 64.9599 406.668 66.4477 406.668 67.6514C406.668 72.4932 403.64 74.5843 400.971 76.4268C398.869 77.8778 396.991 79.1745 396.991 81.5392C396.991 79.1745 395.113 77.8778 393.012 76.4268C390.343 74.5843 387.314 72.4932 387.314 67.6514C387.314 66.4477 387.64 64.9599 388.23 63.5679L388.079 63.5266C387.674 63.4155 387.301 63.2117 386.991 62.9316L386.354 62.358C385.828 61.8836 385.528 61.2118 385.528 60.5075V59.5971ZM398.927 71.6097C398.927 71.8411 398.825 72.0629 398.643 72.2265C398.462 72.39 398.216 72.4819 397.959 72.4819C397.737 72.4819 397.524 72.4134 397.353 72.2894C397.644 73.0603 398.389 73.7908 399.522 72.6161C400.523 71.5246 399.478 69.2224 398.46 67.8562C398.12 67.4009 397.563 67.1817 396.991 67.1817C396.419 67.1817 395.862 67.4009 395.523 67.8562C394.505 69.2224 393.46 71.5246 394.46 72.6161C395.594 73.7908 396.339 73.0603 396.63 72.2894C396.459 72.4134 396.245 72.4819 396.024 72.4819C395.767 72.4819 395.521 72.39 395.339 72.2265C395.158 72.0629 395.056 71.8411 395.056 71.6097H398.927ZM393.285 64.7948H390.59L392.714 66.4776C393.182 66.8478 393.865 66.7295 394.154 66.2281C394.52 65.5951 394.034 64.7948 393.285 64.7948ZM400.697 64.7948H403.393L401.268 66.4776C400.801 66.8478 400.117 66.7295 399.828 66.2281C399.463 65.5951 399.948 64.7948 400.697 64.7948Z" fill="#9EA5AD"/>
<path d="M411.666 74.7099H414.054V65.7011H411.666V74.7099ZM411.666 64.2963H414.054V62.1538H411.666V64.2963Z" fill="#9EA5AD"/>
<path d="M415.593 77.6601H417.982V73.6914H418.017C418.526 74.464 419.351 74.9733 420.616 74.9733C422.934 74.9733 424.514 73.1294 424.514 70.2143C424.514 67.4045 422.986 65.4553 420.598 65.4553C419.369 65.4553 418.526 66.0348 417.946 66.825H417.894V65.7011H415.593V77.6601ZM420.106 72.9889C418.684 72.9889 417.929 71.9177 417.929 70.2845C417.929 68.6689 418.526 67.387 420.019 67.387C421.494 67.387 422.091 68.5811 422.091 70.2845C422.091 71.9879 421.318 72.9889 420.106 72.9889Z" fill="#9EA5AD"/>
<path d="M429.279 74.9733C431.526 74.9733 433.072 73.8845 433.072 72.0757C433.072 69.9684 431.403 69.547 429.893 69.2309C428.611 68.9675 427.417 68.8972 427.417 68.1245C427.417 67.4748 428.032 67.1236 428.963 67.1236C429.981 67.1236 430.596 67.4748 430.701 68.4406H432.861C432.685 66.6318 431.368 65.4553 428.998 65.4553C426.943 65.4553 425.327 66.386 425.327 68.3353C425.327 70.3021 426.908 70.7411 428.523 71.0572C429.753 71.3031 430.894 71.3909 430.894 72.2514C430.894 72.8836 430.297 73.2875 429.243 73.2875C428.172 73.2875 427.435 72.8309 427.277 71.7948H425.064C425.204 73.7089 426.662 74.9733 429.279 74.9733Z" fill="#9EA5AD"/>
<path d="M442.14 74.7099V65.7011H439.751V70.8992C439.751 72.0933 439.066 72.9362 437.943 72.9362C436.924 72.9362 436.45 72.3567 436.45 71.3031V65.7011H434.079V71.707C434.079 73.6738 435.203 74.9557 437.205 74.9557C438.469 74.9557 439.172 74.4816 439.786 73.6562H439.839V74.7099H442.14Z" fill="#9EA5AD"/>
<path d="M443.684 74.7099H446.073V69.4767C446.073 68.2826 446.722 67.5099 447.688 67.5099C448.566 67.5099 449.076 68.0367 449.076 69.0553V74.7099H451.464V69.4767C451.464 68.2826 452.078 67.5099 453.079 67.5099C453.957 67.5099 454.467 68.0367 454.467 69.0553V74.7099H456.855V68.6514C456.855 66.6845 455.784 65.4553 453.887 65.4553C452.746 65.4553 451.797 66.0523 451.183 67.0357H451.148C450.709 66.0875 449.796 65.4553 448.654 65.4553C447.407 65.4553 446.529 66.0875 446.037 66.9128H445.985V65.7011H443.684V74.7099Z" fill="#9EA5AD"/>
<path d="M351.37 74.7099H353.758V62.1538H351.37V74.7099Z" fill="#9EA5AD"/>
<path d="M359.598 74.9733C362.39 74.9733 364.304 72.9011 364.304 70.2143C364.304 67.5275 362.39 65.4553 359.598 65.4553C356.806 65.4553 354.892 67.5275 354.892 70.2143C354.892 72.9011 356.806 74.9733 359.598 74.9733ZM359.598 73.147C358.123 73.147 357.315 71.9704 357.315 70.2143C357.315 68.4582 358.123 67.264 359.598 67.264C361.056 67.264 361.881 68.4582 361.881 70.2143C361.881 71.9704 361.056 73.147 359.598 73.147Z" fill="#9EA5AD"/>
<path d="M369.383 77.7831C370.718 77.7831 371.877 77.467 372.632 76.7645C373.299 76.1499 373.703 75.2894 373.703 74.025V65.7011H371.403V66.6494H371.368C370.823 65.8943 369.998 65.4553 368.874 65.4553C366.591 65.4553 364.975 67.1762 364.975 69.8631C364.975 72.585 366.942 74.1655 368.944 74.1655C370.086 74.1655 370.77 73.7089 371.297 73.1118H371.35V74.0953C371.35 75.3245 370.7 75.9743 369.348 75.9743C368.242 75.9743 367.732 75.5353 367.539 74.9733H365.169C365.414 76.7294 366.925 77.7831 369.383 77.7831ZM369.348 72.2514C368.119 72.2514 367.311 71.3557 367.311 69.8279C367.311 68.3177 368.119 67.3694 369.33 67.3694C370.77 67.3694 371.473 68.4933 371.473 69.8104C371.473 71.145 370.858 72.2514 369.348 72.2514Z" fill="#9EA5AD"/>
<path d="M379.508 74.9733C382.301 74.9733 384.215 72.9011 384.215 70.2143C384.215 67.5275 382.301 65.4553 379.508 65.4553C376.716 65.4553 374.802 67.5275 374.802 70.2143C374.802 72.9011 376.716 74.9733 379.508 74.9733ZM379.508 73.147C378.033 73.147 377.225 71.9704 377.225 70.2143C377.225 68.4582 378.033 67.264 379.508 67.264C380.966 67.264 381.791 68.4582 381.791 70.2143C381.791 71.9704 380.966 73.147 379.508 73.147Z" fill="#9EA5AD"/>
<path d="M456.748 63.7343C456.748 63.3302 457.075 63.0026 457.479 63.0026H458.943C459.347 63.0026 459.674 63.3302 459.674 63.7343C459.674 64.1384 459.347 64.466 458.943 64.466H457.479C457.075 64.466 456.748 64.1384 456.748 63.7343Z" fill="#9EA5AD"/>
</g>
<g clip-path="url(#clip5_6_491)">
<path d="M506.659 57.9999C504.222 57.9999 501.885 58.9679 500.162 60.691L494.539 66.3146C492.815 68.0377 491.847 70.3748 491.847 72.8116C491.847 77.8862 495.961 81.9999 501.036 81.9999C503.473 81.9999 505.81 81.0318 507.533 79.3087L511.423 75.4188C511.423 75.4188 511.423 75.4189 511.423 75.4188L522.756 64.0852C523.579 63.2622 524.695 62.7999 525.859 62.7999C527.808 62.7999 529.46 64.0698 530.032 65.8271L533.609 62.2502C531.977 59.6946 529.116 57.9999 525.859 57.9999C523.422 57.9999 521.085 58.9679 519.362 60.691L504.139 75.9146C503.316 76.7376 502.199 77.1999 501.036 77.1999C498.612 77.1999 496.647 75.2352 496.647 72.8116C496.647 71.6478 497.11 70.5316 497.933 69.7087L503.556 64.0852C504.379 63.2622 505.495 62.7999 506.659 62.7999C508.608 62.7999 510.26 64.0699 510.832 65.8272L514.409 62.2503C512.777 59.6946 509.916 57.9999 506.659 57.9999Z" fill="#9EA5AD"/>
<path d="M523.339 75.9146C522.516 76.7376 521.4 77.1999 520.236 77.1999C518.288 77.1999 516.636 75.9303 516.063 74.1732L512.486 77.75C514.118 80.3054 516.979 81.9999 520.236 81.9999C522.673 81.9999 525.01 81.0318 526.733 79.3087L541.956 64.0852C542.779 63.2622 543.895 62.7999 545.059 62.7999C547.483 62.7999 549.448 64.7646 549.448 67.1881C549.448 68.352 548.985 69.4681 548.162 70.2911L542.539 75.9146C541.716 76.7376 540.6 77.1999 539.436 77.1999C537.487 77.1999 535.836 75.93 535.263 74.1728L531.686 77.7497C533.318 80.3053 536.179 81.9999 539.436 81.9999C541.873 81.9999 544.21 81.0318 545.933 79.3087L551.556 73.6852C553.279 71.962 554.248 69.625 554.248 67.1881C554.248 62.1136 550.134 57.9999 545.059 57.9999C542.622 57.9999 540.285 58.9679 538.562 60.691L523.339 75.9146Z" fill="#9EA5AD"/>
</g>
<g clip-path="url(#clip6_6_491)">
<path d="M615.093 74.9476H622.089V72.8403H617.58V64.9028H615.093V74.9476Z" fill="#9EA5AD"/>
<path d="M626.234 73.5428C625.237 73.5428 624.717 72.6717 624.717 71.3652C624.717 70.0587 625.237 69.1736 626.234 69.1736C627.232 69.1736 627.766 70.0587 627.766 71.3652C627.766 72.6717 627.232 73.5428 626.234 73.5428ZM626.248 75.1724C628.566 75.1724 630.084 73.5287 630.084 71.3652C630.084 69.2017 628.566 67.558 626.248 67.558C623.944 67.558 622.399 69.2017 622.399 71.3652C622.399 73.5287 623.944 75.1724 626.248 75.1724Z" fill="#9EA5AD"/>
<path d="M634.096 77.4343C635.164 77.4343 636.105 77.1955 636.737 76.6335C637.313 76.1137 637.692 75.327 637.692 74.2452V67.7547H635.501V68.5274H635.473C635.051 67.9233 634.405 67.5439 633.45 67.5439C631.665 67.5439 630.429 69.0331 630.429 71.1404C630.429 73.3461 631.932 74.5543 633.548 74.5543C634.419 74.5543 634.967 74.2031 635.388 73.7254H635.445V74.4419C635.445 75.3129 635.037 75.8187 634.068 75.8187C633.309 75.8187 632.93 75.4956 632.803 75.1162H630.584C630.809 76.6195 632.115 77.4343 634.096 77.4343ZM634.082 72.8544C633.225 72.8544 632.663 72.1519 632.663 71.0702C632.663 69.9744 633.225 69.2719 634.082 69.2719C635.037 69.2719 635.543 70.0868 635.543 71.0561C635.543 72.0677 635.079 72.8544 634.082 72.8544Z" fill="#9EA5AD"/>
<path d="M642.199 73.5428C641.201 73.5428 640.682 72.6717 640.682 71.3652C640.682 70.0587 641.201 69.1736 642.199 69.1736C643.196 69.1736 643.73 70.0587 643.73 71.3652C643.73 72.6717 643.196 73.5428 642.199 73.5428ZM642.213 75.1724C644.531 75.1724 646.048 73.5287 646.048 71.3652C646.048 69.2017 644.531 67.558 642.213 67.558C639.909 67.558 638.364 69.2017 638.364 71.3652C638.364 73.5287 639.909 75.1724 642.213 75.1724Z" fill="#9EA5AD"/>
<path d="M646.717 74.9476H649.007V67.7547H646.717V74.9476ZM646.717 66.7572H649.007V64.9028H646.717V66.7572Z" fill="#9EA5AD"/>
<path d="M650 77.3219H652.29V74.2031H652.318C652.768 74.8072 653.428 75.1724 654.355 75.1724C656.238 75.1724 657.488 73.6833 657.488 71.3512C657.488 69.1877 656.322 67.5439 654.412 67.5439C653.428 67.5439 652.726 67.9795 652.234 68.6257H652.192V67.7547H650V77.3219ZM653.765 73.4023C652.782 73.4023 652.22 72.6015 652.22 71.4355C652.22 70.2694 652.726 69.3843 653.723 69.3843C654.707 69.3843 655.17 70.1992 655.17 71.4355C655.17 72.6577 654.636 73.4023 653.765 73.4023Z" fill="#9EA5AD"/>
<path d="M661.216 75.1724C663.099 75.1724 664.49 74.3576 664.49 72.7841C664.49 70.9437 663.001 70.6206 661.736 70.4099C660.823 70.2413 660.008 70.1711 660.008 69.6653C660.008 69.2158 660.444 69.005 661.006 69.005C661.638 69.005 662.073 69.2017 662.158 69.8479H664.265C664.153 68.429 663.057 67.5439 661.02 67.5439C659.32 67.5439 657.915 68.3307 657.915 69.8479C657.915 71.5338 659.25 71.871 660.5 72.0817C661.455 72.2503 662.326 72.3205 662.326 72.9668C662.326 73.4304 661.891 73.6833 661.202 73.6833C660.444 73.6833 659.966 73.332 659.882 72.6156H657.718C657.789 74.2031 659.109 75.1724 661.216 75.1724Z" fill="#9EA5AD"/>
<path d="M667.601 75.1583C668.598 75.1583 669.23 74.765 669.75 74.0625H669.792V74.9476H671.984V67.7546H669.694V71.7726C669.694 72.6296 669.216 73.2196 668.429 73.2196C667.699 73.2196 667.348 72.7841 667.348 71.9974V67.7546H665.072V72.475C665.072 74.0766 665.943 75.1583 667.601 75.1583Z" fill="#9EA5AD"/>
<path d="M672.98 74.9477H675.27V70.9157C675.27 70.0587 675.691 69.4546 676.408 69.4546C677.096 69.4546 677.419 69.9041 677.419 70.6768V74.9477H679.709V70.9157C679.709 70.0587 680.117 69.4546 680.847 69.4546C681.536 69.4546 681.859 69.9041 681.859 70.6768V74.9477H684.149V70.2694C684.149 68.6538 683.334 67.5439 681.704 67.5439C680.777 67.5439 680.004 67.9373 679.442 68.8083H679.414C679.049 68.0357 678.333 67.5439 677.391 67.5439C676.352 67.5439 675.663 68.0357 675.214 68.7802H675.172V67.7547H672.98V74.9477Z" fill="#9EA5AD"/>
<path d="M601.122 59.1571L598.819 58.5402L596.879 65.7809L595.128 59.2439L592.825 59.8608L594.718 66.9235L590.004 62.2098L588.319 63.8952L593.489 69.0656L587.05 67.3403L586.433 69.6425L593.469 71.5277C593.388 71.1802 593.345 70.8182 593.345 70.4463C593.345 67.8136 595.48 65.6793 598.112 65.6793C600.745 65.6793 602.879 67.8136 602.879 70.4463C602.879 70.8158 602.837 71.1756 602.758 71.521L609.152 73.2342L609.768 70.9319L602.705 69.0393L609.145 67.3139L608.528 65.0117L601.465 66.9041L606.178 62.1905L604.493 60.5051L599.394 65.6038L601.122 59.1571Z" fill="#9EA5AD"/>
<path d="M602.752 71.5478C602.554 72.3823 602.137 73.132 601.566 73.7326L606.198 78.3647L607.883 76.6793L602.752 71.5478Z" fill="#9EA5AD"/>
<path d="M601.519 73.7811C600.94 74.3722 600.209 74.8132 599.389 75.0405L601.074 81.3309L603.376 80.714L601.519 73.7811Z" fill="#9EA5AD"/>
<path d="M599.303 75.0635C598.922 75.1613 598.524 75.2133 598.113 75.2133C597.672 75.2133 597.246 75.1536 596.841 75.0419L595.154 81.3379L597.456 81.9548L599.303 75.0635Z" fill="#9EA5AD"/>
<path d="M596.76 75.0186C595.952 74.78 595.234 74.3333 594.667 73.7406L590.023 78.384L591.709 80.0694L596.76 75.0186Z" fill="#9EA5AD"/>
<path d="M594.628 73.6996C594.071 73.1031 593.665 72.3634 593.472 71.5418L587.057 73.2606L587.674 75.5629L594.628 73.6996Z" fill="#9EA5AD"/>
</g>
<g clip-path="url(#clip7_6_491)">
<path d="M717.083 75.7142H719.881V61.0056H717.083V75.7142Z" fill="#9EA5AD"/>
<path d="M726.722 76.0227C729.993 76.0227 732.235 73.5953 732.235 70.4479C732.235 67.3004 729.993 64.873 726.722 64.873C723.451 64.873 721.209 67.3004 721.209 70.4479C721.209 73.5953 723.451 76.0227 726.722 76.0227ZM726.722 73.8833C724.994 73.8833 724.048 72.505 724.048 70.4479C724.048 68.3907 724.994 66.9919 726.722 66.9919C728.429 66.9919 729.396 68.3907 729.396 70.4479C729.396 72.505 728.429 73.8833 726.722 73.8833Z" fill="#9EA5AD"/>
<path d="M738.185 79.3141C739.748 79.3141 741.106 78.9439 741.99 78.121C742.772 77.401 743.245 76.393 743.245 74.9119V65.161H740.55V66.2719H740.509C739.871 65.3873 738.905 64.873 737.588 64.873C734.914 64.873 733.021 66.889 733.021 70.0364C733.021 73.225 735.325 75.0764 737.67 75.0764C739.007 75.0764 739.81 74.5416 740.427 73.8421H740.489V74.9941C740.489 76.4341 739.728 77.1953 738.144 77.1953C736.848 77.1953 736.251 76.681 736.025 76.0227H733.248C733.536 78.0799 735.305 79.3141 738.185 79.3141ZM738.144 72.8341C736.704 72.8341 735.757 71.785 735.757 69.9953C735.757 68.2261 736.703 67.1153 738.123 67.1153C739.81 67.1153 740.633 68.4319 740.633 69.9747C740.633 71.5381 739.913 72.8341 738.144 72.8341Z" fill="#9EA5AD"/>
</g>
</g>
</g>
<rect x="0.419434" y="0.249878" width="736.741" height="105.5" rx="23.75" stroke="#DDDDE4" stroke-width="0.5"/>
<defs>
<clipPath id="clip0_6_491">
<rect x="0.169434" y="-0.00012207" width="737.241" height="106" rx="24" fill="white"/>
</clipPath>
<clipPath id="clip1_6_491">
<rect width="823.22" height="24" fill="white" transform="translate(24.1694 57.9999)"/>
</clipPath>
<clipPath id="clip2_6_491">
<rect width="132" height="24" fill="white" transform="translate(24.1694 57.9999)"/>
</clipPath>
<clipPath id="clip3_6_491">
<rect width="130.8" height="24" fill="white" transform="translate(188.169 57.9999)"/>
</clipPath>
<clipPath id="clip4_6_491">
<rect width="108.878" height="24" fill="white" transform="translate(350.969 57.9999)"/>
</clipPath>
<clipPath id="clip5_6_491">
<rect width="62.4" height="24" fill="white" transform="translate(491.847 57.9999)"/>
</clipPath>
<clipPath id="clip6_6_491">
<rect width="98.3415" height="24" fill="white" transform="translate(586.248 57.9999)"/>
</clipPath>
<clipPath id="clip7_6_491">
<rect width="130.8" height="24" fill="white" transform="translate(716.589 57.9999)"/>
</clipPath>
</defs>
</svg>
