<svg width="25" height="25" viewBox="0 0 25 25" fill="none" xmlns="http://www.w3.org/2000/svg">
<path d="M16.1377 3.7002C17.4638 3.7002 18.7355 4.22698 19.6732 5.16466C20.6109 6.10234 21.1377 7.37411 21.1377 8.7002V16.7002C21.1377 18.0263 20.6109 19.298 19.6732 20.2357C18.7355 21.1734 17.4638 21.7002 16.1377 21.7002H8.1377C6.81161 21.7002 5.53984 21.1734 4.60216 20.2357C3.66448 19.298 3.1377 18.0263 3.1377 16.7002V8.7002C3.1377 7.37411 3.66448 6.10234 4.60216 5.16466C5.53984 4.22698 6.81161 3.7002 8.1377 3.7002H16.1377ZM12.1377 8.7002C11.1115 8.70019 10.1245 9.09463 9.38088 9.80192C8.6373 10.5092 8.19401 11.4752 8.1427 12.5002L8.1377 12.7002C8.1377 13.4913 8.37229 14.2647 8.81182 14.9225C9.25134 15.5803 9.87606 16.093 10.607 16.3957C11.3379 16.6985 12.1421 16.7777 12.9181 16.6233C13.694 16.469 14.4067 16.088 14.9661 15.5286C15.5255 14.9692 15.9065 14.2565 16.0608 13.4806C16.2152 12.7046 16.136 11.9004 15.8332 11.1695C15.5305 10.4386 15.0178 9.81384 14.36 9.37432C13.7022 8.93479 12.9288 8.7002 12.1377 8.7002ZM16.6377 7.2002C16.3928 7.20023 16.1564 7.29015 15.9733 7.45291C15.7903 7.61567 15.6734 7.83994 15.6447 8.0832L15.6377 8.2102C15.638 8.46508 15.7356 8.71023 15.9105 8.89556C16.0855 9.0809 16.3246 9.19243 16.5791 9.20737C16.8335 9.2223 17.0841 9.13952 17.2795 8.97593C17.475 8.81234 17.6006 8.58029 17.6307 8.3272L17.6377 8.2002C17.6377 7.93498 17.5323 7.68063 17.3448 7.49309C17.1573 7.30555 16.9029 7.2002 16.6377 7.2002Z" fill="white"/>
</svg>
