<svg width="41" height="41" viewBox="0 0 41 41" fill="none" xmlns="http://www.w3.org/2000/svg">
<path fill-rule="evenodd" clip-rule="evenodd" d="M2.33594 34.6661C2.33594 33.9661 2.90927 33.3994 3.61427 33.3994H37.7243C38.4293 33.3994 39.0026 33.9661 39.0026 34.6661C39.0026 35.3661 38.4293 35.9327 37.7243 35.9327H3.61427C3.27685 35.9341 2.95269 35.8014 2.71301 35.5639C2.47332 35.3264 2.3377 35.0035 2.33594 34.6661Z" fill="#3B3F44"/>
<path opacity="0.5" d="M6.81962 7.41595C5.32129 8.89928 5.32129 11.2893 5.32129 16.066V24.511C5.32129 27.6943 5.32129 29.2876 6.32129 30.2776C7.31962 31.266 8.92796 31.266 12.143 31.266H29.198C32.4146 31.266 34.0213 31.266 35.0196 30.276C36.0196 29.2876 36.0196 27.6943 36.0196 24.5093V16.066C36.0196 11.2893 36.0196 8.89928 34.5196 7.41595C33.023 5.93262 30.6113 5.93262 25.7863 5.93262H15.553C10.7296 5.93262 8.31962 5.93262 6.81962 7.41595Z" fill="#3B3F44"/>
<path d="M15.5527 24.9326C15.2153 24.9313 14.8912 25.064 14.6515 25.3015C14.4118 25.539 14.2762 25.8619 14.2744 26.1993C14.2744 26.8993 14.8477 27.466 15.5544 27.466H25.7877C26.4927 27.466 27.0661 26.8993 27.0661 26.1993C27.0661 25.4993 26.4927 24.9326 25.7861 24.9326H15.5527Z" fill="#3B3F44"/>
</svg>
