<svg width="25" height="25" viewBox="0 0 25 25" fill="none" xmlns="http://www.w3.org/2000/svg">
<path fill-rule="evenodd" clip-rule="evenodd" d="M3.32556 5.8722C2.15356 7.0432 2.15356 8.9292 2.15356 12.7002C2.15356 16.4712 2.15356 18.3572 3.32556 19.5282C4.49756 20.6992 6.38256 20.7002 10.1536 20.7002H14.1536C17.9246 20.7002 19.8106 20.7002 20.9816 19.5282C22.1526 18.3562 22.1536 16.4712 22.1536 12.7002C22.1536 8.9292 22.1536 7.0432 20.9816 5.8722C19.8096 4.7012 17.9246 4.7002 14.1536 4.7002H10.1536C6.38256 4.7002 4.49656 4.7002 3.32556 5.8722ZM18.7296 8.2202C18.8568 8.37298 18.9182 8.57005 18.9002 8.76807C18.8822 8.96609 18.7863 9.14886 18.6336 9.2762L16.4376 11.1062C15.5506 11.8462 14.8326 12.4442 14.1976 12.8522C13.5376 13.2772 12.8946 13.5452 12.1536 13.5452C11.4126 13.5452 10.7696 13.2762 10.1086 12.8522C9.47456 12.4442 8.75656 11.8452 7.86956 11.1072L5.67356 9.27719C5.52067 9.14989 5.4246 8.96706 5.40651 8.76893C5.38841 8.5708 5.44976 8.37359 5.57706 8.2207C5.70437 8.0678 5.8872 7.97173 6.08533 7.95364C6.28346 7.93554 6.48067 7.99689 6.63356 8.1242L8.79356 9.92319C9.72656 10.7002 10.3736 11.2382 10.9216 11.5902C11.4506 11.9302 11.8096 12.0452 12.1546 12.0452C12.4996 12.0452 12.8586 11.9312 13.3876 11.5902C13.9346 11.2382 14.5826 10.7002 15.5156 9.92319L17.6746 8.1232C17.8275 7.99606 18.0246 7.93486 18.2226 7.95305C18.4207 7.97124 18.6024 8.06733 18.7296 8.2202Z" fill="white"/>
</svg>
