<svg width="25" height="25" viewBox="0 0 25 25" fill="none" xmlns="http://www.w3.org/2000/svg">
<path d="M9.17041 10.4326C11.3795 10.4326 13.1704 8.6417 13.1704 6.43256C13.1704 4.22342 11.3795 2.43256 9.17041 2.43256C6.96127 2.43256 5.17041 4.22342 5.17041 6.43256C5.17041 8.6417 6.96127 10.4326 9.17041 10.4326Z" fill="#29313D"/>
<path d="M9.17041 21.4335C13.0364 21.4335 16.1704 19.6427 16.1704 17.4335C16.1704 15.2244 13.0364 13.4335 9.17041 13.4335C5.30442 13.4335 2.17041 15.2244 2.17041 17.4335C2.17041 19.6427 5.30442 21.4335 9.17041 21.4335Z" fill="#29313D"/>
<path d="M21.1696 17.4326C21.1696 19.0896 19.1336 20.4326 16.6486 20.4326C17.3806 19.6326 17.8846 18.6276 17.8846 17.4346C17.8846 16.2396 17.3796 15.2346 16.6456 14.4336C19.1316 14.4326 21.1696 15.7766 21.1696 17.4326ZM18.1696 6.43258C18.1699 6.91529 18.0538 7.39096 17.831 7.81918C17.6082 8.24741 17.2854 8.61555 16.8899 8.89235C16.4944 9.16915 16.038 9.34643 15.5594 9.40914C15.0807 9.47186 14.5941 9.41815 14.1406 9.25258C14.6286 8.39291 14.8847 7.4211 14.8836 6.43258C14.8836 5.40758 14.6136 4.44558 14.1416 3.61358C14.595 3.44821 15.0816 3.39465 15.5601 3.45746C16.0386 3.52027 16.4948 3.69759 16.8902 3.97437C17.2855 4.25114 17.6082 4.61921 17.831 5.04733C18.0537 5.47545 18.1699 5.94998 18.1696 6.43258Z" fill="#29313D"/>
</svg>
