<svg width="41" height="41" viewBox="0 0 41 41" fill="none" xmlns="http://www.w3.org/2000/svg">
<path opacity="0.5" d="M20.7559 4.26611C23.5559 4.26611 25.7726 4.26611 27.5093 4.50278C29.2959 4.74778 30.7426 5.26278 31.8826 6.42278C33.0226 7.58278 33.5293 9.05611 33.7693 10.8728C34.0026 12.6394 34.0026 14.8961 34.0026 17.7444V24.1211C34.0026 26.9711 34.0026 29.2278 33.7693 30.9928C33.5293 32.8094 33.0226 34.2828 31.8826 35.4428C30.7426 36.6028 29.2959 37.1178 27.5093 37.3628C25.7743 37.5994 23.5559 37.5994 20.7559 37.5994H20.5826C17.7826 37.5994 15.5659 37.5994 13.8293 37.3628C12.0426 37.1178 10.5959 36.6028 9.45594 35.4428C8.31594 34.2828 7.80927 32.8094 7.56927 30.9928C7.33594 29.2261 7.33594 26.9694 7.33594 24.1211V17.7444C7.33594 14.8944 7.33594 12.6378 7.56927 10.8728C7.80927 9.05611 8.31594 7.58278 9.45594 6.42278C10.5959 5.26278 12.0426 4.74945 13.8293 4.50278C15.5643 4.26611 17.7826 4.26611 20.5826 4.26611H20.7559Z" fill="#3B3F44"/>
<path d="M14.9547 31.7842C14.9547 31.1426 15.4663 30.6226 16.098 30.6226H25.2413C25.8713 30.6226 26.383 31.1426 26.383 31.7842C26.3848 31.9357 26.3566 32.086 26.3001 32.2265C26.2436 32.367 26.1599 32.495 26.0539 32.6031C25.9478 32.7112 25.8214 32.7973 25.682 32.8564C25.5425 32.9155 25.3928 32.9465 25.2413 32.9476H16.098C15.9464 32.9467 15.7965 32.9159 15.6569 32.8568C15.5172 32.7978 15.3907 32.7118 15.2844 32.6037C15.1781 32.4956 15.0943 32.3675 15.0377 32.2269C14.9811 32.0862 14.9529 31.9358 14.9547 31.7842Z" fill="#3B3F44"/>
</svg>
