<svg width="40" height="40" viewBox="0 0 40 40" fill="none" xmlns="http://www.w3.org/2000/svg">
<path opacity="0.5" d="M32.8613 33.9365C35.238 32.6415 36.6663 30.9782 36.6663 29.1665C36.6663 27.2465 35.0613 25.4932 32.423 24.1665C29.3713 22.6332 24.9363 21.6665 19.9997 21.6665C15.063 21.6665 10.628 22.6332 7.57634 24.1665C4.93801 25.4932 3.33301 27.2465 3.33301 29.1665C3.33301 31.0865 4.93801 32.8398 7.57634 34.1665C10.628 35.6998 15.063 36.6665 19.9997 36.6665C25.178 36.6665 29.803 35.6048 32.8613 33.9365Z" fill="#080808"/>
<path fill-rule="evenodd" clip-rule="evenodd" d="M8.33301 14.1918C8.33301 8.19516 13.5563 3.3335 19.9997 3.3335C26.443 3.3335 31.6663 8.19516 31.6663 14.1918C31.6663 20.1418 27.943 27.0835 22.133 29.5668C21.4581 29.8529 20.7327 30.0003 19.9997 30.0003C19.2667 30.0003 18.5412 29.8529 17.8663 29.5668C12.0563 27.0835 8.33301 20.1402 8.33301 14.1918ZM19.9997 18.3335C20.8837 18.3335 21.7316 17.9823 22.3567 17.3572C22.9818 16.7321 23.333 15.8842 23.333 15.0002C23.333 14.1161 22.9818 13.2683 22.3567 12.6431C21.7316 12.018 20.8837 11.6668 19.9997 11.6668C19.1156 11.6668 18.2678 12.018 17.6427 12.6431C17.0175 13.2683 16.6663 14.1161 16.6663 15.0002C16.6663 15.8842 17.0175 16.7321 17.6427 17.3572C18.2678 17.9823 19.1156 18.3335 19.9997 18.3335Z" fill="#080808"/>
</svg>
