<svg width="25" height="25" viewBox="0 0 25 25" fill="none" xmlns="http://www.w3.org/2000/svg">
<path d="M12.1536 22.7007C17.6766 22.7007 22.1536 20.6867 22.1536 18.2007C22.1536 16.9347 20.9906 15.7907 19.1186 14.9717C17.9766 17.0677 16.2356 18.8747 14.0236 19.8197C13.4322 20.0711 12.7962 20.2006 12.1536 20.2006C11.511 20.2006 10.875 20.0711 10.2836 19.8197C8.07156 18.8747 6.33056 17.0677 5.18856 14.9727C3.31656 15.7897 2.15356 16.9347 2.15356 18.2007C2.15356 20.6867 6.63056 22.7007 12.1536 22.7007Z" fill="white"/>
<path fill-rule="evenodd" clip-rule="evenodd" d="M5.15356 9.2152C5.15356 5.6172 8.28756 2.7002 12.1536 2.7002C16.0196 2.7002 19.1536 5.6172 19.1536 9.2152C19.1536 12.7852 16.9196 16.9502 13.4336 18.4402C13.0286 18.6118 12.5934 18.7003 12.1536 18.7003C11.7138 18.7003 11.2785 18.6118 10.8736 18.4402C7.38756 16.9502 5.15356 12.7842 5.15356 9.2152ZM12.1536 11.7002C12.684 11.7002 13.1927 11.4895 13.5678 11.1144C13.9429 10.7393 14.1536 10.2306 14.1536 9.7002C14.1536 9.16976 13.9429 8.66105 13.5678 8.28598C13.1927 7.91091 12.684 7.7002 12.1536 7.7002C11.6231 7.7002 11.1144 7.91091 10.7394 8.28598C10.3643 8.66105 10.1536 9.16976 10.1536 9.7002C10.1536 10.2306 10.3643 10.7393 10.7394 11.1144C11.1144 11.4895 11.6231 11.7002 12.1536 11.7002Z" fill="white"/>
</svg>
