<svg width="524" height="122" viewBox="0 0 524 122" fill="none" xmlns="http://www.w3.org/2000/svg">
<g clip-path="url(#clip0_55_1899)">
<path d="M38.3159 42.1679C37.5879 42.1679 36.9066 42.0372 36.2719 41.7759C35.6466 41.5052 35.0959 41.1319 34.6199 40.6559C34.1439 40.1705 33.7706 39.6012 33.4999 38.9479C33.2293 38.2852 33.0939 37.5619 33.0939 36.7779C33.0939 35.9939 33.2293 35.2752 33.4999 34.6219C33.7706 33.9592 34.1439 33.3899 34.6199 32.9139C35.0959 32.4285 35.6466 32.0552 36.2719 31.7939C36.9066 31.5325 37.5879 31.4019 38.3159 31.4019C39.0439 31.4019 39.7206 31.5372 40.3459 31.8079C40.9806 32.0692 41.5359 32.4425 42.0119 32.9279C42.4879 33.4039 42.8613 33.9685 43.1319 34.6219C43.4026 35.2752 43.5379 35.9939 43.5379 36.7779C43.5379 37.5619 43.4026 38.2852 43.1319 38.9479C42.8613 39.6012 42.4879 40.1705 42.0119 40.6559C41.5359 41.1319 40.9806 41.5052 40.3459 41.7759C39.7206 42.0372 39.0439 42.1679 38.3159 42.1679ZM38.3159 41.1179C38.9226 41.1179 39.4733 41.0059 39.9679 40.7819C40.4719 40.5579 40.9059 40.2452 41.2699 39.8439C41.6339 39.4425 41.9139 38.9805 42.1099 38.4579C42.3153 37.9352 42.4179 37.3752 42.4179 36.7779C42.4179 36.1899 42.3153 35.6345 42.1099 35.1119C41.9139 34.5892 41.6339 34.1272 41.2699 33.7259C40.9059 33.3245 40.4719 33.0119 39.9679 32.7879C39.4733 32.5639 38.9226 32.4519 38.3159 32.4519C37.7093 32.4519 37.1539 32.5639 36.6499 32.7879C36.1553 33.0119 35.7259 33.3245 35.3619 33.7259C34.9979 34.1272 34.7133 34.5892 34.5079 35.1119C34.3119 35.6345 34.2139 36.1899 34.2139 36.7779C34.2139 37.3752 34.3119 37.9352 34.5079 38.4579C34.7133 38.9805 34.9979 39.4425 35.3619 39.8439C35.7259 40.2452 36.1599 40.5579 36.6639 40.7819C37.1679 41.0059 37.7186 41.1179 38.3159 41.1179ZM48.1989 42.1679C47.6763 42.1679 47.2003 42.0465 46.7709 41.8039C46.3416 41.5519 46.0009 41.2065 45.7489 40.7679C45.5063 40.3199 45.3849 39.8065 45.3849 39.2279V34.4959H46.4349V39.1019C46.4349 39.5032 46.5143 39.8579 46.6729 40.1659C46.8409 40.4645 47.0696 40.6979 47.3589 40.8659C47.6576 41.0339 47.9983 41.1179 48.3809 41.1179C48.7636 41.1179 49.1043 41.0339 49.4029 40.8659C49.7016 40.6885 49.9349 40.4412 50.1029 40.1239C50.2709 39.7972 50.3549 39.4099 50.3549 38.9619V34.4959H51.4049V41.9999H50.3549V40.5439L50.5929 40.5999C50.4156 41.0852 50.1123 41.4679 49.6829 41.7479C49.2536 42.0279 48.7589 42.1679 48.1989 42.1679ZM53.5643 41.9999V34.4959H54.6143V35.7279L54.4743 35.5459C54.6517 35.1912 54.9177 34.9112 55.2723 34.7059C55.6363 34.5005 56.075 34.3979 56.5883 34.3979H57.0643V35.4479H56.4063C55.865 35.4479 55.431 35.6159 55.1043 35.9519C54.7777 36.2879 54.6143 36.7639 54.6143 37.3799V41.9999H53.5643ZM60.8277 41.9999V31.5699H64.4117C65.093 31.5699 65.6904 31.7052 66.2037 31.9759C66.717 32.2372 67.1137 32.6105 67.3937 33.0959C67.683 33.5719 67.8277 34.1272 67.8277 34.7619C67.8277 35.3965 67.683 35.9519 67.3937 36.4279C67.1137 36.9039 66.717 37.2772 66.2037 37.5479C65.6997 37.8092 65.1024 37.9399 64.4117 37.9399H61.9477V41.9999H60.8277ZM61.9477 36.8899H64.4677C64.9157 36.8899 65.3077 36.8059 65.6437 36.6379C65.9797 36.4605 66.241 36.2132 66.4277 35.8959C66.6144 35.5692 66.7077 35.1865 66.7077 34.7479C66.7077 34.3092 66.6144 33.9312 66.4277 33.6139C66.241 33.2965 65.9797 33.0539 65.6437 32.8859C65.3077 32.7085 64.9157 32.6199 64.4677 32.6199H61.9477V36.8899ZM71.2793 42.1679C70.8033 42.1679 70.3786 42.0792 70.0053 41.9019C69.6319 41.7152 69.3379 41.4632 69.1233 41.1459C68.9086 40.8285 68.8013 40.4645 68.8013 40.0539C68.8013 39.6619 68.8853 39.3072 69.0533 38.9899C69.2213 38.6632 69.4826 38.3879 69.8373 38.1639C70.1919 37.9399 70.6446 37.7812 71.1953 37.6879L74.1353 37.1979V38.1499L71.4473 38.5979C70.9059 38.6912 70.5139 38.8639 70.2713 39.1159C70.0379 39.3679 69.9213 39.6665 69.9213 40.0119C69.9213 40.3479 70.0519 40.6325 70.3133 40.8659C70.5839 41.0992 70.9293 41.2159 71.3493 41.2159C71.8626 41.2159 72.3106 41.1085 72.6933 40.8939C73.0759 40.6699 73.3746 40.3712 73.5893 39.9979C73.8039 39.6245 73.9113 39.2092 73.9113 38.7519V36.8479C73.9113 36.3999 73.7479 36.0359 73.4213 35.7559C73.0946 35.4759 72.6699 35.3359 72.1472 35.3359C71.6899 35.3359 71.2886 35.4525 70.9433 35.6859C70.5979 35.9099 70.3413 36.2039 70.1733 36.5679L69.2213 36.0499C69.3613 35.7325 69.5806 35.4432 69.8792 35.1819C70.1873 34.9205 70.5373 34.7152 70.9293 34.5659C71.3213 34.4072 71.7273 34.3279 72.1472 34.3279C72.6979 34.3279 73.1833 34.4352 73.6033 34.6499C74.0326 34.8645 74.3639 35.1632 74.5973 35.5459C74.8399 35.9192 74.9613 36.3532 74.9613 36.8479V41.9999H73.9113V40.5019L74.0653 40.6559C73.9346 40.9359 73.7293 41.1925 73.4493 41.4259C73.1786 41.6499 72.8566 41.8319 72.4833 41.9719C72.1193 42.1025 71.7179 42.1679 71.2793 42.1679ZM77.121 41.9999V34.4959H78.171V35.7279L78.031 35.5459C78.2083 35.1912 78.4743 34.9112 78.829 34.7059C79.193 34.5005 79.6316 34.3979 80.145 34.3979H80.621V35.4479H79.963C79.4216 35.4479 78.9876 35.6159 78.661 35.9519C78.3343 36.2879 78.171 36.7639 78.171 37.3799V41.9999H77.121ZM84.7214 42.0839C84.0494 42.0839 83.5314 41.8879 83.1674 41.4959C82.8034 41.1039 82.6214 40.5439 82.6214 39.8159V35.5459H81.2354V34.4959H81.5854C81.9028 34.4959 82.1548 34.3932 82.3414 34.1879C82.5281 33.9732 82.6214 33.7072 82.6214 33.3899V32.7599H83.6714V34.4959H85.3234V35.5459H83.6714V39.8159C83.6714 40.0679 83.7088 40.2919 83.7834 40.4879C83.8581 40.6745 83.9841 40.8239 84.1614 40.9359C84.3481 41.0479 84.5954 41.1039 84.9034 41.1039C84.9781 41.1039 85.0668 41.0992 85.1694 41.0899C85.2721 41.0805 85.3608 41.0712 85.4354 41.0619V41.9999C85.3234 42.0279 85.1974 42.0465 85.0574 42.0559C84.9174 42.0745 84.8054 42.0839 84.7214 42.0839ZM87.2792 41.9999V34.4959H88.3292V35.9519L88.0912 35.8959C88.2778 35.4105 88.5812 35.0279 89.0012 34.7479C89.4305 34.4679 89.9252 34.3279 90.4852 34.3279C91.0172 34.3279 91.4932 34.4492 91.9132 34.6919C92.3425 34.9345 92.6785 35.2705 92.9212 35.6999C93.1732 36.1199 93.2992 36.5959 93.2992 37.1279V41.9999H92.2492V37.5339C92.2492 37.0765 92.1652 36.6892 91.9972 36.3719C91.8385 36.0545 91.6098 35.8119 91.3112 35.6439C91.0218 35.4665 90.6858 35.3779 90.3032 35.3779C89.9205 35.3779 89.5798 35.4665 89.2812 35.6439C88.9825 35.8119 88.7492 36.0592 88.5812 36.3859C88.4132 36.7032 88.3292 37.0859 88.3292 37.5339V41.9999H87.2792ZM98.7206 42.1679C98.0206 42.1679 97.3859 41.9999 96.8166 41.6639C96.2566 41.3185 95.8132 40.8472 95.4866 40.2499C95.1599 39.6525 94.9966 38.9759 94.9966 38.2199C94.9966 37.4639 95.1552 36.7965 95.4726 36.2179C95.7899 35.6299 96.2192 35.1679 96.7606 34.8319C97.3112 34.4959 97.9272 34.3279 98.6086 34.3279C99.1499 34.3279 99.6306 34.4305 100.051 34.6359C100.48 34.8319 100.844 35.1025 101.143 35.4479C101.441 35.7839 101.67 36.1665 101.829 36.5959C101.987 37.0159 102.067 37.4499 102.067 37.8979C102.067 37.9912 102.062 38.0985 102.053 38.2199C102.043 38.3319 102.029 38.4485 102.011 38.5699H95.6686V37.5899H101.409L100.905 38.0099C100.989 37.4965 100.928 37.0392 100.723 36.6379C100.527 36.2272 100.242 35.9052 99.8686 35.6719C99.4952 35.4292 99.0752 35.3079 98.6086 35.3079C98.1419 35.3079 97.7079 35.4292 97.3066 35.6719C96.9146 35.9145 96.6066 36.2552 96.3826 36.6939C96.1586 37.1232 96.0699 37.6365 96.1166 38.2339C96.0699 38.8312 96.1632 39.3539 96.3966 39.8019C96.6392 40.2405 96.9659 40.5812 97.3766 40.8239C97.7966 41.0665 98.2446 41.1879 98.7206 41.1879C99.2712 41.1879 99.7332 41.0572 100.107 40.7959C100.48 40.5345 100.783 40.2079 101.017 39.8159L101.913 40.2919C101.763 40.6279 101.535 40.9405 101.227 41.2299C100.919 41.5099 100.55 41.7385 100.121 41.9159C99.7006 42.0839 99.2339 42.1679 98.7206 42.1679ZM103.918 41.9999V34.4959H104.968V35.7279L104.828 35.5459C105.005 35.1912 105.271 34.9112 105.626 34.7059C105.99 34.5005 106.429 34.3979 106.942 34.3979H107.418V35.4479H106.76C106.219 35.4479 105.785 35.6159 105.458 35.9519C105.131 36.2879 104.968 36.7639 104.968 37.3799V41.9999H103.918ZM111.252 42.1679C110.534 42.1679 109.904 41.9859 109.362 41.6219C108.821 41.2579 108.429 40.7632 108.186 40.1379L109.068 39.7179C109.283 40.1752 109.582 40.5392 109.964 40.8099C110.356 41.0805 110.786 41.2159 111.252 41.2159C111.7 41.2159 112.078 41.1085 112.386 40.8939C112.694 40.6699 112.848 40.3805 112.848 40.0259C112.848 39.7645 112.774 39.5592 112.624 39.4099C112.475 39.2512 112.302 39.1299 112.106 39.0459C111.91 38.9619 111.738 38.9012 111.588 38.8639L110.51 38.5559C109.82 38.3599 109.32 38.0845 109.012 37.7299C108.704 37.3752 108.55 36.9645 108.55 36.4979C108.55 36.0592 108.662 35.6765 108.886 35.3499C109.11 35.0232 109.414 34.7712 109.796 34.5939C110.179 34.4165 110.604 34.3279 111.07 34.3279C111.705 34.3279 112.279 34.4959 112.792 34.8319C113.315 35.1585 113.684 35.6159 113.898 36.2039L113.002 36.6239C112.816 36.2039 112.545 35.8772 112.19 35.6439C111.845 35.4012 111.458 35.2799 111.028 35.2799C110.608 35.2799 110.272 35.3872 110.02 35.6019C109.768 35.8165 109.642 36.0872 109.642 36.4139C109.642 36.6659 109.708 36.8665 109.838 37.0159C109.969 37.1652 110.118 37.2772 110.286 37.3519C110.464 37.4265 110.618 37.4825 110.748 37.5199L111.994 37.8839C112.601 38.0612 113.072 38.3365 113.408 38.7099C113.754 39.0832 113.926 39.5219 113.926 40.0259C113.926 40.4365 113.81 40.8052 113.576 41.1319C113.352 41.4585 113.04 41.7152 112.638 41.9019C112.237 42.0792 111.775 42.1679 111.252 42.1679Z" fill="#9098A2"/>
<g clip-path="url(#clip1_55_1899)">
<g clip-path="url(#clip2_55_1899)">
<path d="M44.1697 89.9999C50.7973 89.9999 56.1697 84.6275 56.1697 77.9999V69.5999C56.1697 68.6451 55.7904 67.7294 55.1153 67.0543C54.4401 66.3792 53.5245 65.9999 52.5697 65.9999H44.7697V71.2643C44.7697 72.4655 44.8429 73.7099 45.4729 74.7323C45.9239 75.465 46.5272 76.0921 47.242 76.5712C47.9567 77.0502 48.7661 77.3698 49.6153 77.5085L49.8451 77.5457C49.9398 77.5781 50.0221 77.6393 50.0803 77.7207C50.1385 77.8021 50.1698 77.8998 50.1698 77.9999C50.1698 78.1 50.1385 78.1976 50.0803 78.2791C50.0221 78.3605 49.9398 78.4217 49.8451 78.4541L49.6153 78.4913C48.3746 78.694 47.2289 79.2812 46.34 80.1701C45.451 81.0591 44.8638 82.2048 44.6611 83.4455L44.6239 83.6753C44.5915 83.77 44.5303 83.8523 44.4489 83.9105C44.3674 83.9687 44.2698 84 44.1697 84C44.0696 84 43.9719 83.9687 43.8905 83.9105C43.8091 83.8523 43.7479 83.77 43.7155 83.6753L43.6783 83.4455C43.5396 82.5963 43.2199 81.7869 42.7409 81.0722C42.2619 80.3575 41.6348 79.7541 40.9021 79.3031C39.8797 78.6731 38.6353 78.5999 37.4341 78.5999H32.1841C32.4979 84.9485 37.7437 89.9999 44.1697 89.9999Z" fill="#9EA5AD"/>
<path d="M32.1699 77.3999H37.4343C38.6355 77.3999 39.8799 77.3267 40.9023 76.6967C41.7015 76.2043 42.3743 75.5315 42.8667 74.7323C43.4967 73.7099 43.5699 72.4655 43.5699 71.2643V65.9999H35.7699C34.8151 65.9999 33.8995 66.3792 33.2243 67.0543C32.5492 67.7294 32.1699 68.6451 32.1699 69.5999V77.3999ZM60.0429 67.1999C60.0429 67.5181 59.9165 67.8234 59.6915 68.0484C59.4664 68.2734 59.1612 68.3999 58.8429 68.3999C58.5247 68.3999 58.2194 68.2734 57.9944 68.0484C57.7694 67.8234 57.6429 67.5181 57.6429 67.1999C57.6429 66.8816 57.7694 66.5764 57.9944 66.3513C58.2194 66.1263 58.5247 65.9999 58.8429 65.9999C59.1612 65.9999 59.4664 66.1263 59.6915 66.3513C59.9165 66.5764 60.0429 66.8816 60.0429 67.1999ZM159.197 73.2623C162.551 73.2623 164.17 75.6053 164.17 78.3191V83.4161H160.659V78.9239C160.659 77.6939 160.211 76.6787 158.924 76.6787C157.637 76.6787 157.208 77.6939 157.208 78.9239V83.4155H153.697V78.9239C153.697 77.6939 153.268 76.6787 151.98 76.6787C150.693 76.6787 150.245 77.6939 150.245 78.9239V83.4155H146.735V78.3185C146.735 75.6047 148.353 73.2617 151.707 73.2617C153.541 73.2617 154.867 73.9841 155.472 75.1751C156.115 73.9841 157.52 73.2611 159.197 73.2611V73.2623ZM140.426 80.2919C141.557 80.2919 142.045 79.2569 142.045 78.0263V73.6523H145.555V78.4559C145.555 81.3263 143.878 83.7089 140.426 83.7089C136.974 83.7089 135.297 81.3269 135.297 78.4559V73.6523H138.807V78.0263C138.807 79.2563 139.295 80.2919 140.426 80.2919ZM130.135 83.7281C127.931 83.7281 126.507 82.9667 125.669 81.4829L128.204 80.0573C128.555 80.6819 129.081 80.9945 129.959 80.9945C130.681 80.9945 131.012 80.7407 131.012 80.4281C131.012 79.2371 125.864 80.4479 125.864 76.6601C125.864 74.8241 127.424 73.3403 130.076 73.3403C132.397 73.3403 133.665 74.4725 134.231 75.5663L131.695 77.0111C131.481 76.4255 130.817 76.0739 130.154 76.0739C129.647 76.0739 129.374 76.2887 129.374 76.5815C129.374 77.7923 134.523 76.6793 134.523 80.3501C134.523 82.4003 132.514 83.7281 130.135 83.7281ZM117.87 87.9071H114.359V78.5147C114.359 75.5267 116.602 73.3595 119.723 73.3595C122.765 73.3595 125.086 75.6833 125.086 78.5147C125.086 81.6389 123.018 83.7089 119.918 83.7089C119.196 83.7089 118.475 83.4941 117.87 83.1617V87.9071ZM119.723 80.4089C120.834 80.4089 121.575 79.5497 121.575 78.5339C121.575 77.4995 120.834 76.6595 119.723 76.6595C118.611 76.6595 117.87 77.4995 117.87 78.5345C117.87 79.5497 118.611 80.4089 119.723 80.4089ZM110.843 72.6179C109.692 72.6179 108.737 71.6609 108.737 70.5089C108.737 69.3569 109.692 68.3999 110.843 68.3999C111.993 68.3999 112.949 69.3569 112.949 70.5089C112.949 71.6609 111.993 72.6179 110.843 72.6179ZM109.088 73.6523H112.598V83.4161H109.088V73.6523ZM102.352 83.7089C99.3093 83.7089 96.9885 81.3659 96.9885 78.5147C96.9885 75.6833 99.3093 73.3403 102.352 73.3403C105.395 73.3403 107.715 75.6833 107.715 78.5147C107.715 81.3659 105.395 83.7089 102.352 83.7089ZM102.352 80.4089C103.464 80.4089 104.205 79.5497 104.205 78.5339C104.205 77.4995 103.464 76.6403 102.352 76.6403C101.24 76.6403 100.499 77.4995 100.499 78.5339C100.499 79.5497 101.24 80.4089 102.352 80.4089ZM90.3597 88.1999C87.9417 88.1999 86.1861 87.1259 85.2891 85.2119L88.1949 83.6501C88.5069 84.3143 89.0919 84.9977 90.3009 84.9977C91.5693 84.9977 92.4075 84.1967 92.5053 82.7909C92.0373 83.2013 91.2957 83.5133 90.1845 83.5133C87.4731 83.5133 85.2885 81.4241 85.2885 78.4949C85.2885 75.6641 87.6099 73.3595 90.6525 73.3595C93.7731 73.3595 96.0159 75.5273 96.0159 78.5147V82.3811C96.0159 85.8959 93.5775 88.1999 90.3597 88.1999ZM90.5937 80.2139C91.6467 80.2139 92.4465 79.4909 92.4465 78.4169C92.4465 77.3627 91.6473 76.6595 90.5937 76.6595C89.5599 76.6595 88.7409 77.3627 88.7409 78.4175C88.7409 79.4915 89.5599 80.2133 90.5937 80.2133V80.2139ZM79.3341 83.7089C76.2915 83.7089 73.9701 81.3659 73.9701 78.5147C73.9701 75.6833 76.2915 73.3403 79.3341 73.3403C82.3761 73.3403 84.6975 75.6833 84.6975 78.5147C84.6975 81.3659 82.3767 83.7089 79.3341 83.7089ZM79.3341 80.4089C80.4459 80.4089 81.1869 79.5497 81.1869 78.5339C81.1869 77.4995 80.4459 76.6403 79.3341 76.6403C78.2223 76.6403 77.4813 77.4995 77.4813 78.5339C77.4813 79.5497 78.2223 80.4089 79.3341 80.4089ZM67.5777 70.2359V80.0963H73.3899V83.4161H67.0899C64.8669 83.4161 63.9699 82.2443 63.9699 80.3891V70.2359H67.5777Z" fill="#9EA5AD"/>
</g>
<g clip-path="url(#clip3_55_1899)">
<path d="M269.583 83.7142H272.381V73.161H269.583V83.7142ZM269.583 71.5153H272.381V69.0056H269.583V71.5153Z" fill="#9EA5AD"/>
<path d="M274.184 87.1701H276.981V82.521H277.022C277.619 83.4261 278.586 84.0227 280.067 84.0227C282.782 84.0227 284.634 81.8627 284.634 78.4479C284.634 75.1564 282.844 72.873 280.046 72.873C278.606 72.873 277.619 73.5519 276.94 74.4776H276.878V73.161H274.184V87.1701ZM279.47 81.6981C277.804 81.6981 276.92 80.4433 276.92 78.5301C276.92 76.6376 277.619 75.1359 279.368 75.1359C281.096 75.1359 281.795 76.5347 281.795 78.5301C281.795 80.5256 280.89 81.6981 279.47 81.6981Z" fill="#9EA5AD"/>
<path d="M290.214 84.0227C292.848 84.0227 294.658 82.7473 294.658 80.6284C294.658 78.1599 292.704 77.6661 290.934 77.2959C289.432 76.9873 288.034 76.905 288.034 75.9999C288.034 75.2387 288.754 74.8273 289.844 74.8273C291.037 74.8273 291.757 75.2387 291.88 76.3701H294.411C294.205 74.2513 292.662 72.873 289.885 72.873C287.478 72.873 285.586 73.9633 285.586 76.2467C285.586 78.5507 287.437 79.065 289.33 79.4353C290.77 79.7233 292.107 79.8261 292.107 80.8341C292.107 81.5747 291.408 82.0479 290.173 82.0479C288.918 82.0479 288.054 81.513 287.869 80.2993H285.277C285.442 82.5416 287.149 84.0227 290.214 84.0227Z" fill="#9EA5AD"/>
<path d="M305.28 83.7142V73.161H302.482V79.2502C302.482 80.649 301.68 81.6364 300.364 81.6364C299.17 81.6364 298.615 80.9576 298.615 79.7233V73.161H295.838V80.1964C295.838 82.5004 297.154 84.0022 299.5 84.0022C300.981 84.0022 301.804 83.4468 302.524 82.4799H302.585V83.7142H305.28Z" fill="#9EA5AD"/>
<path d="M307.09 83.7141H309.888V77.5839C309.888 76.185 310.649 75.2799 311.781 75.2799C312.809 75.2799 313.405 75.897 313.405 77.0901V83.7141H316.203V77.5839C316.203 76.185 316.923 75.2799 318.096 75.2799C319.125 75.2799 319.721 75.897 319.721 77.0901V83.7141H322.519V76.617C322.519 74.313 321.264 72.873 319.042 72.873C317.705 72.873 316.594 73.5724 315.874 74.7244H315.833C315.319 73.6136 314.249 72.873 312.912 72.873C311.451 72.873 310.423 73.6136 309.847 74.5804H309.785V73.161H307.09V83.7141Z" fill="#9EA5AD"/>
<path d="M196.665 83.7142H199.462V69.0056H196.665V83.7142Z" fill="#9EA5AD"/>
<path d="M206.303 84.0227C209.574 84.0227 211.816 81.5953 211.816 78.4479C211.816 75.3004 209.574 72.873 206.303 72.873C203.032 72.873 200.79 75.3004 200.79 78.4479C200.79 81.5953 203.032 84.0227 206.303 84.0227ZM206.303 81.8833C204.575 81.8833 203.628 80.505 203.628 78.4479C203.628 76.3907 204.575 74.9919 206.303 74.9919C208.01 74.9919 208.977 76.3907 208.977 78.4479C208.977 80.505 208.01 81.8833 206.303 81.8833Z" fill="#9EA5AD"/>
<path d="M217.766 87.3141C219.329 87.3141 220.687 86.9439 221.572 86.121C222.353 85.401 222.827 84.393 222.827 82.9119V73.161H220.132V74.2719H220.091C219.453 73.3873 218.486 72.873 217.169 72.873C214.495 72.873 212.603 74.889 212.603 78.0364C212.603 81.225 214.907 83.0764 217.252 83.0764C218.589 83.0764 219.391 82.5416 220.008 81.8421H220.07V82.9941C220.07 84.4341 219.309 85.1953 217.725 85.1953C216.429 85.1953 215.832 84.681 215.606 84.0227H212.829C213.117 86.0799 214.886 87.3141 217.766 87.3141ZM217.725 80.8341C216.285 80.8341 215.339 79.785 215.339 77.9953C215.339 76.2261 216.285 75.1153 217.704 75.1153C219.391 75.1153 220.214 76.4319 220.214 77.9747C220.214 79.5381 219.494 80.8341 217.725 80.8341Z" fill="#9EA5AD"/>
<path d="M229.626 84.0227C232.897 84.0227 235.14 81.5953 235.14 78.4479C235.14 75.3004 232.897 72.873 229.626 72.873C226.356 72.873 224.113 75.3004 224.113 78.4479C224.113 81.5953 226.356 84.0227 229.626 84.0227ZM229.626 81.8833C227.898 81.8833 226.952 80.505 226.952 78.4479C226.952 76.3907 227.898 74.9919 229.626 74.9919C231.334 74.9919 232.301 76.3907 232.301 78.4479C232.301 80.505 231.334 81.8833 229.626 81.8833Z" fill="#9EA5AD"/>
<path d="M323.535 71.4284C323.535 70.955 323.919 70.5713 324.393 70.5713H326.107C326.58 70.5713 326.964 70.955 326.964 71.4284C326.964 71.9018 326.58 72.2856 326.107 72.2856H324.393C323.919 72.2856 323.535 71.9018 323.535 71.4284Z" fill="#9EA5AD"/>
<path fill-rule="evenodd" clip-rule="evenodd" d="M252.106 65.9999C258.734 65.9999 264.107 71.3725 264.107 77.9999C264.107 84.6273 258.734 89.9999 252.106 89.9999C245.479 89.9999 240.106 84.6273 240.106 77.9999C240.106 71.3725 245.479 65.9999 252.106 65.9999ZM251.673 66.8978C250.304 67.0905 249 68.1905 247.988 70.0303C247.695 70.564 247.43 71.1536 247.199 71.7901C248.575 71.4444 250.086 71.2405 251.673 71.209V66.8978ZM246.185 72.0784C246.472 71.1776 246.823 70.3489 247.228 69.6123C247.73 68.7002 248.325 67.9126 248.996 67.3077C245.348 68.367 242.474 71.242 241.414 74.8893C242.019 74.2186 242.807 73.6232 243.719 73.1216C244.455 72.7165 245.284 72.3653 246.185 72.0784ZM245.897 73.0925C245.551 74.4685 245.347 75.9799 245.316 77.5661H241.004C241.197 76.1971 242.297 74.8936 244.137 73.8817C244.671 73.5882 245.26 73.3234 245.897 73.0925ZM246.183 77.5661C246.219 75.8351 246.468 74.2099 246.881 72.774C248.316 72.3617 249.942 72.1124 251.673 72.0766V73.9504C251.027 75.6036 249.71 76.9206 248.057 77.5661H246.183ZM245.316 78.4336H241.004C241.197 79.8026 242.297 81.1061 244.137 82.118C244.671 82.4116 245.26 82.6764 245.897 82.9072C245.551 81.5313 245.347 80.0198 245.316 78.4336ZM246.881 83.2258C246.468 81.7898 246.219 80.1647 246.183 78.4336H248.057C249.71 79.0792 251.027 80.3962 251.673 82.0494V83.9231C249.942 83.8873 248.316 83.6381 246.881 83.2258ZM246.185 83.9214C245.284 83.6344 244.455 83.2833 243.719 82.8781C242.807 82.3765 242.019 81.7812 241.414 81.1105C242.474 84.7578 245.348 87.6328 248.996 88.692C248.325 88.0871 247.73 87.2995 247.228 86.3875C246.823 85.6508 246.472 84.8221 246.185 83.9214ZM251.673 89.1019C250.304 88.9093 249 87.8092 247.988 85.9694C247.695 85.4358 247.43 84.8462 247.199 84.2096C248.575 84.5554 250.086 84.7592 251.673 84.7907V89.1019ZM255.217 88.692C255.888 88.0871 256.483 87.2995 256.985 86.3875C257.39 85.6508 257.741 84.8221 258.028 83.9214C258.929 83.6344 259.757 83.2833 260.494 82.8781C261.406 82.3765 262.194 81.7812 262.799 81.1105C261.739 84.7578 258.864 87.6328 255.217 88.692ZM257.014 84.2096C256.783 84.8462 256.518 85.4358 256.224 85.9694C255.213 87.8092 253.909 88.9093 252.54 89.1019V84.7907C254.126 84.7592 255.638 84.5554 257.014 84.2096ZM258.316 82.9072C258.953 82.6764 259.542 82.4116 260.076 82.118C261.916 81.1062 263.016 79.8026 263.208 78.4336H258.897C258.866 80.0198 258.662 81.5313 258.316 82.9072ZM258.03 78.4336C257.994 80.1647 257.745 81.7898 257.332 83.2258C255.896 83.6381 254.271 83.8873 252.54 83.9231V82.0508C253.186 80.3969 254.503 79.0793 256.157 78.4336H258.03ZM258.897 77.5661H263.208C263.016 76.1971 261.916 74.8936 260.076 73.8817C259.542 73.5882 258.953 73.3234 258.316 73.0925C258.662 74.4685 258.866 75.9799 258.897 77.5661ZM257.332 72.774C257.745 74.2099 257.994 75.8351 258.03 77.5661H256.157C254.503 76.9204 253.186 75.6028 252.54 73.949V72.0766C254.271 72.1124 255.896 72.3617 257.332 72.774ZM258.028 72.0784C258.929 72.3653 259.757 72.7165 260.494 73.1216C261.406 73.6232 262.194 74.2186 262.799 74.8893C261.739 71.242 258.864 68.367 255.217 67.3077C255.888 67.9126 256.483 68.7002 256.985 69.6123C257.39 70.3489 257.741 71.1776 258.028 72.0784ZM252.54 66.8978C253.909 67.0905 255.213 68.1905 256.224 70.0303C256.518 70.564 256.783 71.1536 257.014 71.7901C255.638 71.4444 254.126 71.2405 252.54 71.209V66.8978Z" fill="#9EA5AD"/>
</g>
<g clip-path="url(#clip4_55_1899)">
<path fill-rule="evenodd" clip-rule="evenodd" d="M393.528 67.5971C393.528 66.7838 394.195 66.1245 395.017 66.1245H397.611C398.196 66.1245 398.763 66.3251 399.215 66.6922L400.004 67.3321L400.024 67.3499C400.042 67.3439 400.061 67.3379 400.079 67.3321C401.502 66.8812 403.229 66.7954 404.992 66.7954C406.754 66.7954 408.481 66.8812 409.905 67.3321C409.923 67.3379 409.941 67.3439 409.959 67.3499L409.979 67.3321L410.768 66.6922C411.22 66.3251 411.788 66.1245 412.373 66.1245H414.966C415.789 66.1245 416.455 66.7838 416.455 67.5971V68.5075C416.455 69.2118 416.155 69.8836 415.629 70.358L414.992 70.9316C414.682 71.2117 414.309 71.4155 413.904 71.5266L413.753 71.5679C414.343 72.9599 414.669 74.4477 414.669 75.6514C414.669 80.4932 411.64 82.5843 408.971 84.4268C406.87 85.8778 404.992 87.1745 404.992 89.5392C404.992 87.1745 403.114 85.8778 401.012 84.4268C398.343 82.5843 395.315 80.4932 395.315 75.6514C395.315 74.4477 395.641 72.9599 396.23 71.5679L396.08 71.5266C395.675 71.4155 395.302 71.2117 394.991 70.9316L394.355 70.358C393.828 69.8836 393.528 69.2118 393.528 68.5075V67.5971ZM406.927 79.6097C406.927 79.8411 406.825 80.0629 406.644 80.2265C406.462 80.39 406.216 80.4819 405.959 80.4819C405.738 80.4819 405.524 80.4134 405.353 80.2894C405.644 81.0603 406.389 81.7908 407.523 80.6161C408.523 79.5246 407.478 77.2224 406.46 75.8562C406.121 75.4009 405.564 75.1817 404.992 75.1817C404.42 75.1817 403.863 75.4009 403.523 75.8562C402.505 77.2224 401.46 79.5246 402.461 80.6161C403.594 81.7908 404.339 81.0603 404.63 80.2894C404.459 80.4134 404.246 80.4819 404.024 80.4819C403.767 80.4819 403.521 80.39 403.34 80.2265C403.158 80.0629 403.056 79.8411 403.056 79.6097H406.927ZM401.286 72.7948H398.59L400.715 74.4776C401.182 74.8478 401.866 74.7295 402.155 74.2281C402.52 73.5951 402.035 72.7948 401.286 72.7948ZM408.697 72.7948H411.393L409.269 74.4776C408.801 74.8478 408.118 74.7295 407.829 74.2281C407.463 73.5951 407.948 72.7948 408.697 72.7948Z" fill="#9EA5AD"/>
<path d="M419.666 82.7099H422.054V73.7011H419.666V82.7099ZM419.666 72.2963H422.054V70.1538H419.666V72.2963Z" fill="#9EA5AD"/>
<path d="M423.594 85.6601H425.982V81.6914H426.017C426.526 82.464 427.352 82.9733 428.616 82.9733C430.934 82.9733 432.515 81.1294 432.515 78.2143C432.515 75.4045 430.987 73.4553 428.599 73.4553C427.369 73.4553 426.526 74.0348 425.947 74.825H425.894V73.7011H423.594V85.6601ZM428.107 80.9889C426.684 80.9889 425.929 79.9177 425.929 78.2845C425.929 76.6689 426.526 75.387 428.019 75.387C429.494 75.387 430.091 76.5811 430.091 78.2845C430.091 79.9879 429.319 80.9889 428.107 80.9889Z" fill="#9EA5AD"/>
<path d="M437.279 82.9733C439.527 82.9733 441.072 81.8845 441.072 80.0757C441.072 77.9684 439.404 77.547 437.894 77.2309C436.612 76.9675 435.418 76.8972 435.418 76.1245C435.418 75.4748 436.032 75.1236 436.963 75.1236C437.982 75.1236 438.596 75.4748 438.702 76.4406H440.862C440.686 74.6318 439.369 73.4553 436.998 73.4553C434.943 73.4553 433.328 74.386 433.328 76.3353C433.328 78.3021 434.908 78.7411 436.524 79.0572C437.753 79.3031 438.895 79.3909 438.895 80.2514C438.895 80.8836 438.298 81.2875 437.244 81.2875C436.173 81.2875 435.435 80.8309 435.277 79.7948H433.064C433.205 81.7089 434.663 82.9733 437.279 82.9733Z" fill="#9EA5AD"/>
<path d="M450.14 82.7099V73.7011H447.751V78.8992C447.751 80.0933 447.066 80.9362 445.943 80.9362C444.924 80.9362 444.45 80.3567 444.45 79.3031V73.7011H442.079V79.707C442.079 81.6738 443.203 82.9557 445.205 82.9557C446.469 82.9557 447.172 82.4816 447.786 81.6562H447.839V82.7099H450.14Z" fill="#9EA5AD"/>
<path d="M451.685 82.7099H454.073V77.4767C454.073 76.2826 454.723 75.5099 455.688 75.5099C456.567 75.5099 457.076 76.0367 457.076 77.0553V82.7099H459.464V77.4767C459.464 76.2826 460.079 75.5099 461.08 75.5099C461.958 75.5099 462.467 76.0367 462.467 77.0553V82.7099H464.855V76.6514C464.855 74.6845 463.784 73.4553 461.887 73.4553C460.746 73.4553 459.798 74.0523 459.183 75.0357H459.148C458.709 74.0875 457.796 73.4553 456.654 73.4553C455.408 73.4553 454.529 74.0875 454.038 74.9128H453.985V73.7011H451.685V82.7099Z" fill="#9EA5AD"/>
<path d="M359.37 82.7099H361.758V70.1538H359.37V82.7099Z" fill="#9EA5AD"/>
<path d="M367.598 82.9733C370.39 82.9733 372.304 80.9011 372.304 78.2143C372.304 75.5275 370.39 73.4553 367.598 73.4553C364.806 73.4553 362.892 75.5275 362.892 78.2143C362.892 80.9011 364.806 82.9733 367.598 82.9733ZM367.598 81.147C366.123 81.147 365.315 79.9704 365.315 78.2143C365.315 76.4582 366.123 75.264 367.598 75.264C369.056 75.264 369.881 76.4582 369.881 78.2143C369.881 79.9704 369.056 81.147 367.598 81.147Z" fill="#9EA5AD"/>
<path d="M377.383 85.7831C378.718 85.7831 379.877 85.467 380.632 84.7645C381.299 84.1499 381.703 83.2894 381.703 82.025V73.7011H379.403V74.6494H379.368C378.823 73.8943 377.998 73.4553 376.874 73.4553C374.591 73.4553 372.976 75.1762 372.976 77.8631C372.976 80.585 374.942 82.1655 376.944 82.1655C378.086 82.1655 378.771 81.7089 379.298 81.1118H379.35V82.0953C379.35 83.3245 378.7 83.9743 377.348 83.9743C376.242 83.9743 375.733 83.5353 375.539 82.9733H373.169C373.415 84.7294 374.925 85.7831 377.383 85.7831ZM377.348 80.2514C376.119 80.2514 375.311 79.3557 375.311 77.8279C375.311 76.3177 376.119 75.3694 377.331 75.3694C378.771 75.3694 379.473 76.4933 379.473 77.8104C379.473 79.145 378.859 80.2514 377.348 80.2514Z" fill="#9EA5AD"/>
<path d="M387.509 82.9733C390.301 82.9733 392.215 80.9011 392.215 78.2143C392.215 75.5275 390.301 73.4553 387.509 73.4553C384.717 73.4553 382.803 75.5275 382.803 78.2143C382.803 80.9011 384.717 82.9733 387.509 82.9733ZM387.509 81.147C386.034 81.147 385.226 79.9704 385.226 78.2143C385.226 76.4582 386.034 75.264 387.509 75.264C388.967 75.264 389.792 76.4582 389.792 78.2143C389.792 79.9704 388.967 81.147 387.509 81.147Z" fill="#9EA5AD"/>
<path d="M464.748 71.7343C464.748 71.3302 465.075 71.0026 465.48 71.0026H466.943C467.347 71.0026 467.675 71.3302 467.675 71.7343C467.675 72.1384 467.347 72.466 466.943 72.466H465.48C465.075 72.466 464.748 72.1384 464.748 71.7343Z" fill="#9EA5AD"/>
</g>
<g clip-path="url(#clip5_55_1899)">
<path d="M514.659 65.9999C512.223 65.9999 509.885 66.9679 508.162 68.691L502.539 74.3146C500.816 76.0377 499.848 78.3748 499.848 80.8116C499.848 85.8862 503.961 89.9999 509.036 89.9999C511.473 89.9999 513.81 89.0318 515.533 87.3087L519.423 83.4188C519.423 83.4188 519.423 83.4189 519.423 83.4188L530.756 72.0852C531.579 71.2622 532.696 70.7999 533.859 70.7999C535.808 70.7999 537.46 72.0698 538.033 73.8271L541.609 70.2502C539.978 67.6946 537.116 65.9999 533.859 65.9999C531.423 65.9999 529.085 66.9679 527.362 68.691L512.139 83.9146C511.316 84.7376 510.2 85.1999 509.036 85.1999C506.612 85.1999 504.648 83.2352 504.648 80.8116C504.648 79.6478 505.11 78.5316 505.933 77.7087L511.556 72.0852C512.379 71.2622 513.496 70.7999 514.659 70.7999C516.608 70.7999 518.26 72.0699 518.833 73.8272L522.409 70.2503C520.778 67.6946 517.917 65.9999 514.659 65.9999Z" fill="#9EA5AD"/>
<path d="M531.339 83.9146C530.516 84.7376 529.4 85.1999 528.236 85.1999C526.288 85.1999 524.636 83.9303 524.063 82.1732L520.486 85.75C522.118 88.3054 524.979 89.9999 528.236 89.9999C530.673 89.9999 533.01 89.0318 534.733 87.3087L549.957 72.0852C550.78 71.2622 551.896 70.7999 553.06 70.7999C555.483 70.7999 557.448 72.7646 557.448 75.1881C557.448 76.352 556.985 77.4681 556.162 78.2911L550.539 83.9146C549.716 84.7376 548.6 85.1999 547.436 85.1999C545.488 85.1999 543.836 83.93 543.263 82.1728L539.686 85.7497C541.318 88.3053 544.179 89.9999 547.436 89.9999C549.873 89.9999 552.21 89.0318 553.933 87.3087L559.557 81.6852C561.28 79.962 562.248 77.625 562.248 75.1881C562.248 70.1136 558.134 65.9999 553.06 65.9999C550.623 65.9999 548.286 66.9679 546.562 68.691L531.339 83.9146Z" fill="#9EA5AD"/>
</g>
</g>
</g>
<rect x="0.419922" y="0.249878" width="522.5" height="121.5" rx="23.75" stroke="#DDDDE4" stroke-width="0.5"/>
<defs>
<clipPath id="clip0_55_1899">
<rect x="0.169922" y="-0.00012207" width="523" height="122" rx="24" fill="white"/>
</clipPath>
<clipPath id="clip1_55_1899">
<rect width="823.22" height="24" fill="white" transform="translate(32.1699 65.9999)"/>
</clipPath>
<clipPath id="clip2_55_1899">
<rect width="132" height="24" fill="white" transform="translate(32.1699 65.9999)"/>
</clipPath>
<clipPath id="clip3_55_1899">
<rect width="130.8" height="24" fill="white" transform="translate(196.17 65.9999)"/>
</clipPath>
<clipPath id="clip4_55_1899">
<rect width="108.878" height="24" fill="white" transform="translate(358.97 65.9999)"/>
</clipPath>
<clipPath id="clip5_55_1899">
<rect width="62.4" height="24" fill="white" transform="translate(499.848 65.9999)"/>
</clipPath>
</defs>
</svg>
