<svg width="353" height="31" viewBox="0 0 353 31" fill="none" xmlns="http://www.w3.org/2000/svg">
<rect x="323.169" y="1.43262" width="28" height="28" rx="14" stroke="#DDDDE4" stroke-width="2"/>
<path d="M337.589 20.6475V18.4075H332.969V16.5875L337.449 10.2175H339.759V16.5875H341.369V18.4075H339.759V20.6475H337.589ZM334.551 17.3715L334.145 16.5875H337.589V11.8975L338.135 12.0655L334.551 17.3715Z" fill="#3B3F44"/>
<path d="M283.502 15.4326L322.169 15.4326" stroke="#DDDDE4" stroke-width="2" stroke-linecap="round"/>
<path d="M244.836 15.4326L283.503 15.4326" stroke="#DDDDE4" stroke-width="2" stroke-linecap="round"/>
<rect x="215.836" y="1.43262" width="28" height="28" rx="14" stroke="#DDDDE4" stroke-width="2"/>
<path d="M229.992 20.6006C229.414 20.6006 228.863 20.4933 228.34 20.2786C227.818 20.0546 227.374 19.742 227.01 19.3406C226.646 18.9393 226.404 18.468 226.282 17.9266L228.2 17.2826C228.359 17.7306 228.592 18.0713 228.9 18.3046C229.208 18.5286 229.572 18.6406 229.992 18.6406C230.338 18.6406 230.632 18.5753 230.874 18.4446C231.126 18.314 231.322 18.132 231.462 17.8986C231.602 17.656 231.672 17.376 231.672 17.0586C231.672 16.7413 231.602 16.4706 231.462 16.2466C231.332 16.0133 231.14 15.836 230.888 15.7146C230.646 15.584 230.347 15.5186 229.992 15.5186C229.787 15.5186 229.582 15.542 229.376 15.5886C229.171 15.6353 228.984 15.7006 228.816 15.7846L228.312 14.7346L230.986 11.8226H226.912V10.0026H233.422V11.6826L230.678 14.8046L230.748 13.9226C231.374 13.9226 231.915 14.0533 232.372 14.3146C232.839 14.5666 233.198 14.9213 233.45 15.3786C233.712 15.836 233.842 16.368 233.842 16.9746C233.842 17.6653 233.674 18.286 233.338 18.8366C233.002 19.3873 232.545 19.8213 231.966 20.1386C231.388 20.4466 230.73 20.6006 229.992 20.6006Z" fill="#3B3F44"/>
<path d="M176.169 15.4326L214.836 15.4326" stroke="#DDDDE4" stroke-width="2" stroke-linecap="round"/>
<path d="M137.503 15.4326L176.17 15.4326" stroke="#FFC200" stroke-width="2" stroke-linecap="round"/>
<path d="M122.503 0.932617C130.511 0.932617 137.003 7.42449 137.003 15.4326C137.003 23.4407 130.511 29.9326 122.503 29.9326C114.495 29.9326 108.003 23.4407 108.003 15.4326C108.003 7.42449 114.495 0.932617 122.503 0.932617Z" fill="#FFC200"/>
<path d="M122.503 0.932617C130.511 0.932617 137.003 7.42449 137.003 15.4326C137.003 23.4407 130.511 29.9326 122.503 29.9326C114.495 29.9326 108.003 23.4407 108.003 15.4326C108.003 7.42449 114.495 0.932617 122.503 0.932617Z" stroke="#FFC200"/>
<path d="M119.159 20.4326V18.7526L121.959 15.8686C122.51 15.2993 122.925 14.8513 123.205 14.5246C123.495 14.1886 123.691 13.9086 123.793 13.6846C123.905 13.4606 123.961 13.2413 123.961 13.0266C123.961 12.6439 123.835 12.3453 123.583 12.1306C123.341 11.9066 123.033 11.7946 122.659 11.7946C122.277 11.7946 121.936 11.9066 121.637 12.1306C121.339 12.3453 121.119 12.6766 120.979 13.1246L119.089 12.5086C119.201 11.9673 119.435 11.496 119.789 11.0946C120.144 10.6933 120.573 10.3853 121.077 10.1706C121.581 9.94662 122.109 9.83462 122.659 9.83462C123.35 9.83462 123.957 9.95595 124.479 10.1986C125.002 10.4413 125.408 10.7819 125.697 11.2206C125.987 11.6593 126.131 12.1726 126.131 12.7606C126.131 13.134 126.066 13.5026 125.935 13.8666C125.805 14.2213 125.604 14.5853 125.333 14.9586C125.072 15.3226 124.731 15.7193 124.311 16.1486L121.917 18.6126H126.229V20.4326H119.159Z" fill="white"/>
<path d="M68.8359 15.4326L107.503 15.4326" stroke="#FFC200" stroke-width="2" stroke-linecap="round"/>
<path d="M30.1694 15.4326L68.8361 15.4326" stroke="#FFC200" stroke-width="2" stroke-linecap="round"/>
<rect x="0.669434" y="0.932617" width="29" height="29" rx="14.5" fill="#FFC200"/>
<rect x="0.669434" y="0.932617" width="29" height="29" rx="14.5" stroke="#FFC200"/>
<path d="M15.0993 20.6475V12.0515H13.0693V10.2175H17.2693V20.6475H15.0993Z" fill="white"/>
</svg>
