<svg width="353" height="31" viewBox="0 0 353 31" fill="none" xmlns="http://www.w3.org/2000/svg">
<path d="M337.169 1.43262C345.178 1.43262 351.669 7.92449 351.669 15.9326C351.669 23.9407 345.178 30.4326 337.169 30.4326C329.161 30.4326 322.669 23.9407 322.669 15.9326C322.669 7.92449 329.161 1.43262 337.169 1.43262Z" fill="#FFC200"/>
<path d="M337.169 1.43262C345.178 1.43262 351.669 7.92449 351.669 15.9326C351.669 23.9407 345.178 30.4326 337.169 30.4326C329.161 30.4326 322.669 23.9407 322.669 15.9326C322.669 7.92449 329.161 1.43262 337.169 1.43262Z" stroke="#FFC200"/>
<path d="M337.589 21.1478V18.9078H332.969V17.0878L337.449 10.7178H339.759V17.0878H341.369V18.9078H339.759V21.1478H337.589ZM334.551 17.8718L334.145 17.0878H337.589V12.3978L338.135 12.5658L334.551 17.8718Z" fill="white"/>
<path d="M244.836 15.9326L322.169 15.9326" stroke="#FFC200" stroke-width="2" stroke-linecap="round"/>
<path d="M229.836 1.43262C237.844 1.43262 244.336 7.92449 244.336 15.9326C244.336 23.9407 237.844 30.4326 229.836 30.4326C221.828 30.4326 215.336 23.9407 215.336 15.9326C215.336 7.92449 221.828 1.43262 229.836 1.43262Z" fill="#FFC200"/>
<path d="M229.836 1.43262C237.844 1.43262 244.336 7.92449 244.336 15.9326C244.336 23.9407 237.844 30.4326 229.836 30.4326C221.828 30.4326 215.336 23.9407 215.336 15.9326C215.336 7.92449 221.828 1.43262 229.836 1.43262Z" stroke="#FFC200"/>
<path d="M229.992 21.1006C229.414 21.1006 228.863 20.9933 228.34 20.7786C227.818 20.5546 227.374 20.242 227.01 19.8406C226.646 19.4393 226.404 18.968 226.282 18.4266L228.2 17.7826C228.359 18.2306 228.592 18.5713 228.9 18.8046C229.208 19.0286 229.572 19.1406 229.992 19.1406C230.338 19.1406 230.632 19.0753 230.874 18.9446C231.126 18.814 231.322 18.632 231.462 18.3986C231.602 18.156 231.672 17.876 231.672 17.5586C231.672 17.2413 231.602 16.9706 231.462 16.7466C231.332 16.5133 231.14 16.336 230.888 16.2146C230.646 16.084 230.347 16.0186 229.992 16.0186C229.787 16.0186 229.582 16.042 229.376 16.0886C229.171 16.1353 228.984 16.2006 228.816 16.2846L228.312 15.2346L230.986 12.3226H226.912V10.5026H233.422V12.1826L230.678 15.3046L230.748 14.4226C231.374 14.4226 231.915 14.5533 232.372 14.8146C232.839 15.0666 233.198 15.4213 233.45 15.8786C233.712 16.336 233.842 16.868 233.842 17.4746C233.842 18.1653 233.674 18.786 233.338 19.3366C233.002 19.8873 232.545 20.3213 231.966 20.6386C231.388 20.9466 230.73 21.1006 229.992 21.1006Z" fill="white"/>
<path d="M137.503 15.9326L214.836 15.9326" stroke="#FFC200" stroke-width="2" stroke-linecap="round"/>
<path d="M122.503 1.43262C130.511 1.43262 137.003 7.92449 137.003 15.9326C137.003 23.9407 130.511 30.4326 122.503 30.4326C114.495 30.4326 108.003 23.9407 108.003 15.9326C108.003 7.92449 114.495 1.43262 122.503 1.43262Z" fill="#FFC200"/>
<path d="M122.503 1.43262C130.511 1.43262 137.003 7.92449 137.003 15.9326C137.003 23.9407 130.511 30.4326 122.503 30.4326C114.495 30.4326 108.003 23.9407 108.003 15.9326C108.003 7.92449 114.495 1.43262 122.503 1.43262Z" stroke="#FFC200"/>
<path d="M119.159 20.9326V19.2526L121.959 16.3686C122.51 15.7993 122.925 15.3513 123.205 15.0246C123.495 14.6886 123.691 14.4086 123.793 14.1846C123.905 13.9606 123.961 13.7413 123.961 13.5266C123.961 13.1439 123.835 12.8453 123.583 12.6306C123.341 12.4066 123.033 12.2946 122.659 12.2946C122.277 12.2946 121.936 12.4066 121.637 12.6306C121.339 12.8453 121.119 13.1766 120.979 13.6246L119.089 13.0086C119.201 12.4673 119.435 11.996 119.789 11.5946C120.144 11.1933 120.573 10.8853 121.077 10.6706C121.581 10.4466 122.109 10.3346 122.659 10.3346C123.35 10.3346 123.957 10.456 124.479 10.6986C125.002 10.9413 125.408 11.2819 125.697 11.7206C125.987 12.1593 126.131 12.6726 126.131 13.2606C126.131 13.634 126.066 14.0026 125.935 14.3666C125.805 14.7213 125.604 15.0853 125.333 15.4586C125.072 15.8226 124.731 16.2193 124.311 16.6486L121.917 19.1126H126.229V20.9326H119.159Z" fill="white"/>
<path d="M68.8359 15.9326L107.503 15.9326" stroke="#FFC200" stroke-width="2" stroke-linecap="round"/>
<path d="M30.1694 15.9326L68.8361 15.9326" stroke="#FFC200" stroke-width="2" stroke-linecap="round"/>
<rect x="0.669434" y="1.43262" width="29" height="29" rx="14.5" fill="#FFC200"/>
<rect x="0.669434" y="1.43262" width="29" height="29" rx="14.5" stroke="#FFC200"/>
<path d="M15.0993 21.1478V12.5518H13.0693V10.7178H17.2693V21.1478H15.0993Z" fill="white"/>
</svg>
