<svg width="152" height="108" viewBox="0 0 152 108" fill="none" xmlns="http://www.w3.org/2000/svg">
<path d="M69.2275 22.3255H65.1312C58.0311 22.3255 53.2521 23.428 50.7942 25.633C48.3364 27.5624 47.1076 30.043 47.1076 33.0748C47.1076 35.5555 47.6536 38.3117 48.7459 41.3434C50.1115 44.3754 51.477 47.4071 52.8425 50.4391C54.4809 53.4708 56.1196 56.365 57.7579 59.1213C59.3967 61.6018 60.6254 63.669 61.4446 65.3229C62.8101 67.8034 63.3561 70.2839 63.0833 72.7647C63.0833 74.9695 63.3561 76.8992 63.9025 78.5527C63.9025 87.3727 60.8986 94.4009 54.8905 99.638C48.8827 104.875 41.919 107.493 33.9994 107.493C29.9031 107.493 25.8067 106.666 21.7104 105.013C17.6141 103.359 13.9275 100.74 10.6504 97.1572C7.64644 93.2985 5.05211 88.4751 2.86742 82.6871C0.955807 76.8992 0 69.8706 0 61.6018C0 52.7818 1.22889 44.6512 3.68668 37.2093C6.14446 29.4917 9.69459 22.8767 14.3371 17.3643C19.2527 11.8518 24.9875 7.57964 31.5416 4.54778C38.3688 1.51593 46.1517 0 54.8905 0C59.5331 0 64.3121 0.413434 69.2275 1.2403V22.3255ZM151.973 22.3255H147.877C140.776 22.3255 135.997 23.428 133.54 25.633C131.082 27.5624 129.853 30.043 129.853 33.0748C129.853 35.5555 130.399 38.3117 131.492 41.3434C132.857 44.3754 134.222 47.4071 135.588 50.4391C137.227 53.4708 138.865 56.365 140.504 59.1213C142.142 61.6018 143.371 63.669 144.19 65.3229C145.555 67.8034 146.102 70.2839 145.829 72.7647C145.829 74.9695 146.102 76.8992 146.648 78.5527C146.648 87.3727 143.644 94.4009 137.636 99.638C131.628 104.875 124.664 107.493 116.745 107.493C112.648 107.493 108.552 106.666 104.456 105.013C100.36 103.359 96.6731 100.74 93.396 97.1572C90.3918 93.2985 87.7975 88.4751 85.6128 82.6871C83.7012 76.8992 82.7457 69.8706 82.7457 61.6018C82.7457 52.7818 83.9744 44.6512 86.4323 37.2093C88.8898 29.4917 92.4401 22.8767 97.0827 17.3643C101.998 11.8518 107.733 7.57964 114.287 4.54778C121.114 1.51593 128.897 0 137.636 0C142.278 0 147.058 0.413434 151.973 1.2403V22.3255Z" fill="#3B3F44"/>
</svg>
