<svg width="114" height="45" viewBox="0 0 114 45" fill="none" xmlns="http://www.w3.org/2000/svg">
<path d="M41.0534 20.8804C41.3278 20.9108 41.575 20.7129 41.6054 20.4385C41.6358 20.164 41.4379 19.9169 41.1634 19.8865L41.1084 20.3834L41.0534 20.8804ZM11.611 6.69122L11.4605 6.21442L11.611 6.69122ZM4.49982 24.7007C4.7386 24.8394 5.04461 24.7583 5.18331 24.5195L7.44359 20.6284C7.58229 20.3896 7.50116 20.0836 7.26238 19.9449C7.0236 19.8062 6.71759 19.8873 6.57889 20.1261L4.56975 23.5849L1.11094 21.5758C0.872157 21.437 0.566146 21.5182 0.427446 21.757C0.288743 21.9957 0.369876 22.3018 0.608655 22.4405L4.49982 24.7007ZM41.1084 20.3834L41.1634 19.8865C38.8458 19.6298 36.5669 18.4724 34.2455 16.8769C31.9177 15.277 29.6245 13.2946 27.2236 11.4081C22.4907 7.68945 17.3573 4.35288 11.4605 6.21442L11.611 6.69122L11.7615 7.16803C17.1054 5.48106 21.8403 8.45011 26.6058 12.1944C28.954 14.0395 31.3175 16.0779 33.6791 17.701C36.0472 19.3286 38.4906 20.5966 41.0534 20.8804L41.1084 20.3834ZM11.611 6.69122L11.4605 6.21442C5.87301 7.97829 4.09267 12.6168 3.69691 16.6899C3.49892 18.7276 3.64179 20.6509 3.83245 22.0609C3.92794 22.767 4.03583 23.3474 4.12021 23.7527C4.16242 23.9554 4.19878 24.1145 4.22483 24.2238C4.23786 24.2784 4.24832 24.3207 4.25564 24.3497C4.2593 24.3642 4.26218 24.3755 4.26421 24.3833C4.26522 24.3872 4.26602 24.3903 4.26659 24.3925C4.26689 24.3936 4.26712 24.3945 4.2673 24.3951C4.26738 24.3955 4.26748 24.3958 4.26752 24.396C4.2676 24.3963 4.26766 24.3965 4.75096 24.2684C5.23426 24.1402 5.2343 24.1404 5.23431 24.1404C5.2343 24.1404 5.2343 24.1404 5.23428 24.1403C5.23423 24.1401 5.23412 24.1397 5.23396 24.1391C5.23364 24.1379 5.23309 24.1358 5.23233 24.1328C5.23082 24.127 5.22845 24.1177 5.2253 24.1053C5.219 24.0803 5.20958 24.0422 5.19759 23.9919C5.1736 23.8913 5.13934 23.7416 5.09921 23.5488C5.01893 23.1632 4.91531 22.6064 4.82343 21.9269C4.63934 20.5655 4.50401 18.7237 4.69223 16.7866C5.06888 12.9101 6.71858 8.76 11.7615 7.16803L11.611 6.69122Z" fill="black"/>
<rect x="44.3662" y="11.0059" width="70" height="21" rx="6" transform="rotate(10.818 44.3662 11.0059)" fill="#080808"/>
<path d="M53.7167 28.2107C53.1588 28.1041 52.6722 27.9012 52.257 27.6019C51.8418 27.3027 51.5108 26.9462 51.2641 26.5325C51.0188 26.111 50.8707 25.6714 50.8197 25.2137L51.7292 25.0576C51.8194 25.6939 52.0505 26.2104 52.4226 26.6073C52.7963 26.9964 53.2817 27.2479 53.8789 27.362C54.256 27.4341 54.5973 27.4382 54.9027 27.3744C55.2175 27.3043 55.4745 27.1742 55.6737 26.9842C55.8729 26.7942 56.0002 26.5538 56.0558 26.2631C56.1384 25.8309 56.0843 25.4744 55.8936 25.1937C55.703 24.9129 55.3996 24.6676 54.9836 24.4578L53.4943 23.6845C52.908 23.3852 52.4865 22.991 52.2297 22.5021C51.9808 22.0148 51.9081 21.5 52.0117 20.9578C52.1003 20.4942 52.2923 20.1073 52.5877 19.7973C52.8847 19.4794 53.2491 19.2558 53.6811 19.1266C54.1208 18.9988 54.5922 18.983 55.0951 19.0791C55.6216 19.1797 56.0743 19.368 56.4532 19.6441C56.8415 19.9137 57.151 20.2335 57.3816 20.6034C57.6123 20.9732 57.7537 21.3627 57.8059 21.7718L56.9177 21.9441C56.8283 21.3895 56.6087 20.9403 56.259 20.5965C55.9171 20.2543 55.479 20.0321 54.9447 19.93C54.6068 19.8654 54.297 19.8673 54.0151 19.9356C53.7412 20.0055 53.5124 20.1369 53.3289 20.3299C53.1455 20.5229 53.0252 20.7686 52.9681 21.0672C52.8991 21.4287 52.9507 21.7766 53.123 22.1109C53.2968 22.4373 53.606 22.7163 54.0504 22.9478L55.3624 23.6261C56.0149 23.9625 56.4811 24.3571 56.7611 24.8097C57.0412 25.2623 57.1256 25.7793 57.0145 26.3608C56.9244 26.8322 56.723 27.2254 56.4104 27.5404C56.1071 27.8489 55.7198 28.064 55.2486 28.1858C54.7852 28.309 54.2746 28.3173 53.7167 28.2107ZM59.8452 29.3818C59.4445 29.3052 59.1012 29.1622 58.8154 28.9529C58.5312 28.7356 58.3242 28.4762 58.1945 28.1745C58.0648 27.8728 58.033 27.5491 58.0991 27.2033C58.1621 26.8733 58.2899 26.5882 58.4824 26.3481C58.6764 26.1001 58.9407 25.9103 59.2754 25.7788C59.61 25.6472 60.0166 25.5865 60.4953 25.5965L63.0493 25.6569L62.8961 26.4584L60.561 26.4032C60.0902 26.3947 59.7324 26.477 59.4876 26.6501C59.2506 26.8247 59.1043 27.0574 59.0488 27.3481C58.9947 27.631 59.0589 27.8917 59.2414 28.1302C59.4318 28.3702 59.7037 28.524 60.0573 28.5915C60.4895 28.6741 60.884 28.6558 61.2407 28.5366C61.5989 28.4096 61.8984 28.2062 62.1392 27.9264C62.38 27.6467 62.5371 27.3143 62.6107 26.9292L62.917 25.3262C62.9891 24.9491 62.9101 24.6163 62.6802 24.328C62.4502 24.0397 62.1152 23.8536 61.6751 23.7695C61.2901 23.6959 60.9334 23.7296 60.6052 23.8704C60.2784 24.0035 60.015 24.2097 59.815 24.4891L59.0968 23.8999C59.2658 23.6552 59.497 23.4469 59.7905 23.275C60.0918 23.1045 60.4195 22.9879 60.7736 22.9253C61.1291 22.8547 61.4837 22.8533 61.8373 22.9208C62.3009 23.0094 62.6922 23.1779 63.0113 23.4262C63.3382 23.676 63.5691 23.9807 63.704 24.3404C63.8483 24.6938 63.8806 25.0787 63.801 25.4951L62.9722 29.8327L62.0882 29.6637L62.3292 28.4026L62.4341 28.557C62.279 28.7717 62.0648 28.9548 61.7916 29.1062C61.5276 29.2512 61.2273 29.3526 60.8904 29.4104C60.563 29.4619 60.2146 29.4523 59.8452 29.3818ZM66.3609 30.4802L65.1047 23.6918L66.0947 23.881L67.1106 29.8171L66.7924 29.7563L69.9372 24.6152L70.9391 24.8067L67.2449 30.6491L66.3609 30.4802ZM73.4983 31.9906C72.9089 31.878 72.4016 31.6345 71.9763 31.26C71.5604 30.8792 71.263 30.411 71.0841 29.8556C70.9051 29.3001 70.8765 28.7042 70.9981 28.0677C71.1197 27.4312 71.3607 26.8949 71.7209 26.4588C72.0827 26.0148 72.5185 25.6949 73.0283 25.4991C73.546 25.3048 74.0916 25.2624 74.6652 25.3721C75.121 25.4591 75.5091 25.6229 75.8297 25.8633C76.1596 26.0974 76.4226 26.3839 76.6184 26.7227C76.8158 27.0536 76.9468 27.4125 77.0113 27.7995C77.0773 28.1787 77.0743 28.5568 77.0022 28.934C76.9872 29.0126 76.966 29.1022 76.9386 29.2028C76.9128 29.2956 76.8822 29.3916 76.847 29.4907L71.5076 28.4705L71.6652 27.6454L76.4978 28.5688L76.0059 28.8413C76.1592 28.4227 76.1817 28.0279 76.0734 27.657C75.9745 27.2797 75.7866 26.9628 75.5098 26.7063C75.2345 26.4419 74.9005 26.2722 74.5076 26.1971C74.1147 26.122 73.7298 26.1544 73.3528 26.2941C72.9838 26.4354 72.6697 26.6726 72.4105 27.0059C72.1528 27.3313 71.9956 27.7492 71.9388 28.2596C71.8034 28.755 71.7979 29.2101 71.9223 29.6248C72.056 30.0332 72.2762 30.3725 72.5829 30.6429C72.8975 30.9148 73.2552 31.089 73.6559 31.1656C74.1195 31.2542 74.5295 31.2185 74.8859 31.0585C75.2422 30.8986 75.5502 30.6723 75.8097 30.3798L76.4874 30.9247C76.3077 31.1836 76.0648 31.41 75.759 31.6041C75.4546 31.7903 75.1075 31.9235 74.7175 32.0037C74.3368 32.0776 73.9304 32.0732 73.4983 31.9906ZM81.1296 33.3023L82.6499 25.3462L80.9997 25.0309L81.1574 24.2058L83.7505 24.7013L82.0725 33.4825L81.1296 33.3023ZM86.9027 34.552C86.447 34.465 86.0377 34.3053 85.6748 34.0731C85.3198 33.8423 85.0247 33.5538 84.7895 33.2075C84.5543 32.8612 84.4004 32.4734 84.3277 32.0442L85.1142 31.8279C85.2079 32.3182 85.4335 32.736 85.791 33.0812C86.1579 33.4201 86.5811 33.6354 87.0604 33.727C87.4454 33.8005 87.8045 33.7755 88.1376 33.6518C88.4786 33.5296 88.7648 33.3319 88.9963 33.0584C89.2292 32.7771 89.3825 32.444 89.456 32.059C89.5326 31.6582 89.5098 31.2873 89.3876 30.9464C89.2733 30.6069 89.0834 30.3222 88.8178 30.0922C88.5538 29.8544 88.2331 29.6995 87.856 29.6274C87.4709 29.5539 87.0961 29.5759 86.7316 29.6936C86.3764 29.8049 86.1001 29.972 85.9027 30.1949L85.1872 29.9116L86.7572 25.2759L91.2008 26.125L91.0431 26.95L86.9413 26.1663L87.3675 25.9178L86.1209 29.5647L85.787 29.3298C86.1266 29.0445 86.4946 28.8664 86.891 28.7955C87.2888 28.7168 87.6802 28.7142 88.0653 28.7878C88.631 28.8959 89.1045 29.1248 89.4856 29.4746C89.8682 29.8165 90.1393 30.2307 90.2988 30.7173C90.4677 31.1975 90.5011 31.7048 90.399 32.2391C90.2954 32.7813 90.0719 33.2477 89.7285 33.6382C89.3944 34.0223 88.9794 34.2973 88.4835 34.4632C87.9954 34.6305 87.4685 34.6601 86.9027 34.552ZM92.2598 35.4291L101.128 28.0219L102.271 28.2403L93.4032 35.6476L92.2598 35.4291ZM94.3712 31.3489C93.9469 31.2678 93.5813 31.0921 93.2746 30.8217C92.9694 30.5435 92.7438 30.2112 92.5977 29.8249C92.4595 29.4401 92.4309 29.0356 92.512 28.6113C92.593 28.1869 92.7688 27.8214 93.0391 27.5147C93.3189 27.2017 93.6511 26.976 94.0359 26.8378C94.4207 26.6995 94.8252 26.6709 95.2496 26.752C95.6739 26.8331 96.0394 27.0088 96.3461 27.2792C96.6528 27.5496 96.8745 27.8811 97.0113 28.2737C97.1495 28.6585 97.1781 29.0631 97.097 29.4874C97.0159 29.9117 96.8402 30.2772 96.5698 30.5839C96.2995 30.8906 95.9711 31.117 95.5848 31.2631C95.2001 31.4014 94.7955 31.4299 94.3712 31.3489ZM94.5333 30.5002C94.8084 30.5528 95.0608 30.5318 95.2906 30.4372C95.5298 30.3363 95.7294 30.1871 95.8893 29.9896C96.0585 29.7858 96.1665 29.5621 96.213 29.3185C96.261 29.067 96.2432 28.8193 96.1595 28.5752C96.0837 28.3327 95.9525 28.1244 95.7659 27.9502C95.5886 27.7697 95.3624 27.6532 95.0874 27.6007C94.8202 27.5496 94.5631 27.5738 94.3161 27.6732C94.0784 27.7662 93.8757 27.9108 93.7079 28.1068C93.548 28.3042 93.444 28.5287 93.396 28.7802C93.3494 29.0238 93.3633 29.2708 93.4376 29.5212C93.5213 29.7652 93.6557 29.9782 93.8409 30.1602C94.0354 30.3358 94.2662 30.4492 94.5333 30.5002ZM99.1752 36.8971C98.7509 36.816 98.3854 36.6403 98.0787 36.3699C97.7735 36.0917 97.5478 35.7595 97.4017 35.3732C97.2635 34.9884 97.2349 34.5838 97.316 34.1595C97.3971 33.7352 97.5728 33.3697 97.8432 33.063C98.1229 32.7499 98.4552 32.5243 98.8399 32.386C99.2247 32.2478 99.6293 32.2192 100.054 32.3003C100.478 32.3814 100.843 32.5571 101.15 32.8275C101.457 33.0978 101.679 33.4293 101.815 33.822C101.954 34.2068 101.982 34.6113 101.901 35.0357C101.82 35.46 101.644 35.8255 101.374 36.1322C101.103 36.4389 100.775 36.6653 100.389 36.8114C100.004 36.9496 99.5995 36.9782 99.1752 36.8971ZM99.3374 36.0485C99.6124 36.101 99.8648 36.08 100.095 35.9855C100.334 35.8846 100.533 35.7354 100.693 35.5379C100.863 35.334 100.97 35.1103 101.017 34.8667C101.065 34.6153 101.047 34.3675 100.964 34.1235C100.888 33.8809 100.757 33.6726 100.57 33.4985C100.393 33.318 100.166 33.2015 99.8914 33.1489C99.6243 33.0979 99.3672 33.1221 99.1201 33.2215C98.8824 33.3145 98.6797 33.459 98.5119 33.655C98.352 33.8525 98.248 34.077 98.2 34.3284C98.1534 34.572 98.1673 34.819 98.2417 35.0694C98.3253 35.3135 98.4598 35.5265 98.6449 35.7085C98.8394 35.8841 99.0702 35.9974 99.3374 36.0485Z" fill="white"/>
</svg>
