<svg width="353" height="31" viewBox="0 0 353 31" fill="none" xmlns="http://www.w3.org/2000/svg">
<path d="M337.169 0.932617C345.178 0.932617 351.669 7.42449 351.669 15.4326C351.669 23.4407 345.178 29.9326 337.169 29.9326C329.161 29.9326 322.669 23.4407 322.669 15.4326C322.669 7.42449 329.161 0.932617 337.169 0.932617Z" fill="#FFC200"/>
<path d="M337.169 0.932617C345.178 0.932617 351.669 7.42449 351.669 15.4326C351.669 23.4407 345.178 29.9326 337.169 29.9326C329.161 29.9326 322.669 23.4407 322.669 15.4326C322.669 7.42449 329.161 0.932617 337.169 0.932617Z" stroke="#FFC200"/>
<path d="M337.326 20.6006C336.747 20.6006 336.196 20.4933 335.674 20.2786C335.151 20.0546 334.708 19.742 334.344 19.3406C333.98 18.9393 333.737 18.468 333.616 17.9266L335.534 17.2826C335.692 17.7306 335.926 18.0713 336.234 18.3046C336.542 18.5286 336.906 18.6406 337.326 18.6406C337.671 18.6406 337.965 18.5753 338.208 18.4446C338.46 18.314 338.656 18.132 338.796 17.8986C338.936 17.656 339.006 17.376 339.006 17.0586C339.006 16.7413 338.936 16.4706 338.796 16.2466C338.665 16.0133 338.474 15.836 338.222 15.7146C337.979 15.584 337.68 15.5186 337.326 15.5186C337.12 15.5186 336.915 15.542 336.71 15.5886C336.504 15.6353 336.318 15.7006 336.15 15.7846L335.646 14.7346L338.32 11.8226H334.246V10.0026H340.756V11.6826L338.012 14.8046L338.082 13.9226C338.707 13.9226 339.248 14.0533 339.706 14.3146C340.172 14.5666 340.532 14.9213 340.784 15.3786C341.045 15.836 341.176 16.368 341.176 16.9746C341.176 17.6653 341.008 18.286 340.672 18.8366C340.336 19.3873 339.878 19.8213 339.3 20.1386C338.721 20.4466 338.063 20.6006 337.326 20.6006Z" fill="white"/>
<path d="M191.169 15.4326L322.169 15.4326" stroke="#FFC200" stroke-width="2" stroke-linecap="round"/>
<path d="M176.169 0.932617C184.178 0.932617 190.669 7.42449 190.669 15.4326C190.669 23.4407 184.178 29.9326 176.169 29.9326C168.161 29.9326 161.669 23.4407 161.669 15.4326C161.669 7.42449 168.161 0.932617 176.169 0.932617Z" fill="#FFC200"/>
<path d="M176.169 0.932617C184.178 0.932617 190.669 7.42449 190.669 15.4326C190.669 23.4407 184.178 29.9326 176.169 29.9326C168.161 29.9326 161.669 23.4407 161.669 15.4326C161.669 7.42449 168.161 0.932617 176.169 0.932617Z" stroke="#FFC200"/>
<path d="M172.826 20.4326V18.7526L175.626 15.8686C176.176 15.2993 176.592 14.8513 176.872 14.5246C177.161 14.1886 177.357 13.9086 177.46 13.6846C177.572 13.4606 177.628 13.2413 177.628 13.0266C177.628 12.6439 177.502 12.3453 177.25 12.1306C177.007 11.9066 176.699 11.7946 176.326 11.7946C175.943 11.7946 175.602 11.9066 175.304 12.1306C175.005 12.3453 174.786 12.6766 174.646 13.1246L172.756 12.5086C172.868 11.9673 173.101 11.496 173.456 11.0946C173.81 10.6933 174.24 10.3853 174.744 10.1706C175.248 9.94662 175.775 9.83462 176.326 9.83462C177.016 9.83462 177.623 9.95595 178.146 10.1986C178.668 10.4413 179.074 10.7819 179.364 11.2206C179.653 11.6593 179.798 12.1726 179.798 12.7606C179.798 13.134 179.732 13.5026 179.602 13.8666C179.471 14.2213 179.27 14.5853 179 14.9586C178.738 15.3226 178.398 15.7193 177.978 16.1486L175.584 18.6126H179.896V20.4326H172.826Z" fill="white"/>
<path d="M30.1694 15.4326L161.169 15.4326" stroke="#FFC200" stroke-width="2" stroke-linecap="round"/>
<rect x="0.669434" y="0.932617" width="29" height="29" rx="14.5" fill="#FFC200"/>
<rect x="0.669434" y="0.932617" width="29" height="29" rx="14.5" stroke="#FFC200"/>
<path d="M15.0993 20.6475V12.0515H13.0693V10.2175H17.2693V20.6475H15.0993Z" fill="white"/>
</svg>
