<svg width="353" height="31" viewBox="0 0 353 31" fill="none" xmlns="http://www.w3.org/2000/svg">
<rect x="323.169" y="1.4325" width="28" height="28" rx="14" stroke="#DDDDE4" stroke-width="2"/>
<path d="M337.326 20.6005C336.747 20.6005 336.196 20.4932 335.674 20.2785C335.151 20.0545 334.708 19.7418 334.344 19.3405C333.98 18.9392 333.737 18.4678 333.616 17.9265L335.534 17.2825C335.692 17.7305 335.926 18.0712 336.234 18.3045C336.542 18.5285 336.906 18.6405 337.326 18.6405C337.671 18.6405 337.965 18.5752 338.208 18.4445C338.46 18.3138 338.656 18.1318 338.796 17.8985C338.936 17.6558 339.006 17.3758 339.006 17.0585C339.006 16.7412 338.936 16.4705 338.796 16.2465C338.665 16.0132 338.474 15.8358 338.222 15.7145C337.979 15.5838 337.68 15.5185 337.326 15.5185C337.12 15.5185 336.915 15.5418 336.71 15.5885C336.504 15.6352 336.318 15.7005 336.15 15.7845L335.646 14.7345L338.32 11.8225H334.246V10.0025H340.756V11.6825L338.012 14.8045L338.082 13.9225C338.707 13.9225 339.248 14.0532 339.706 14.3145C340.172 14.5665 340.532 14.9212 340.784 15.3785C341.045 15.8358 341.176 16.3678 341.176 16.9745C341.176 17.6652 341.008 18.2858 340.672 18.8365C340.336 19.3872 339.878 19.8212 339.3 20.1385C338.721 20.4465 338.063 20.6005 337.326 20.6005Z" fill="#3B3F44"/>
<path d="M256.669 15.4325L322.169 15.4325" stroke="#DDDDE4" stroke-width="2" stroke-linecap="round"/>
<path d="M191.169 15.4325L256.669 15.4325" stroke="#FFC200" stroke-width="2" stroke-linecap="round"/>
<path d="M176.169 0.932495C184.178 0.932495 190.669 7.42437 190.669 15.4325C190.669 23.4406 184.178 29.9325 176.169 29.9325C168.161 29.9325 161.669 23.4406 161.669 15.4325C161.669 7.42437 168.161 0.932495 176.169 0.932495Z" fill="#FFC200"/>
<path d="M176.169 0.932495C184.178 0.932495 190.669 7.42437 190.669 15.4325C190.669 23.4406 184.178 29.9325 176.169 29.9325C168.161 29.9325 161.669 23.4406 161.669 15.4325C161.669 7.42437 168.161 0.932495 176.169 0.932495Z" stroke="#FFC200"/>
<path d="M172.826 20.4325V18.7525L175.626 15.8685C176.176 15.2992 176.592 14.8512 176.872 14.5245C177.161 14.1885 177.357 13.9085 177.46 13.6845C177.572 13.4605 177.628 13.2412 177.628 13.0265C177.628 12.6438 177.502 12.3452 177.25 12.1305C177.007 11.9065 176.699 11.7945 176.326 11.7945C175.943 11.7945 175.602 11.9065 175.304 12.1305C175.005 12.3452 174.786 12.6765 174.646 13.1245L172.756 12.5085C172.868 11.9672 173.101 11.4958 173.456 11.0945C173.81 10.6932 174.24 10.3852 174.744 10.1705C175.248 9.94649 175.775 9.83449 176.326 9.83449C177.016 9.83449 177.623 9.95583 178.146 10.1985C178.668 10.4412 179.074 10.7818 179.364 11.2205C179.653 11.6592 179.798 12.1725 179.798 12.7605C179.798 13.1338 179.732 13.5025 179.602 13.8665C179.471 14.2212 179.27 14.5852 179 14.9585C178.738 15.3225 178.398 15.7192 177.978 16.1485L175.584 18.6125H179.896V20.4325H172.826Z" fill="white"/>
<path d="M95.6694 15.4325L161.169 15.4325" stroke="#FFC200" stroke-width="2" stroke-linecap="round"/>
<path d="M30.1694 15.4325L95.6694 15.4325" stroke="#FFC200" stroke-width="2" stroke-linecap="round"/>
<rect x="0.669434" y="0.932495" width="29" height="29" rx="14.5" fill="#FFC200"/>
<rect x="0.669434" y="0.932495" width="29" height="29" rx="14.5" stroke="#FFC200"/>
<path d="M15.0993 20.6475V12.0515H13.0693V10.2175H17.2693V20.6475H15.0993Z" fill="white"/>
</svg>
