<svg width="353" height="31" viewBox="0 0 353 31" fill="none" xmlns="http://www.w3.org/2000/svg">
<rect x="323.169" y="1.43256" width="28" height="28" rx="14" stroke="#DDDDE4" stroke-width="2"/>
<path d="M337.326 20.6006C336.747 20.6006 336.196 20.4932 335.674 20.2786C335.151 20.0546 334.708 19.7419 334.344 19.3406C333.98 18.9392 333.737 18.4679 333.616 17.9266L335.534 17.2826C335.692 17.7306 335.926 18.0712 336.234 18.3046C336.542 18.5286 336.906 18.6406 337.326 18.6406C337.671 18.6406 337.965 18.5752 338.208 18.4446C338.46 18.3139 338.656 18.1319 338.796 17.8986C338.936 17.6559 339.006 17.3759 339.006 17.0586C339.006 16.7412 338.936 16.4706 338.796 16.2466C338.665 16.0132 338.474 15.8359 338.222 15.7146C337.979 15.5839 337.68 15.5186 337.326 15.5186C337.12 15.5186 336.915 15.5419 336.71 15.5886C336.504 15.6352 336.318 15.7006 336.15 15.7846L335.646 14.7346L338.32 11.8226H334.246V10.0026H340.756V11.6826L338.012 14.8046L338.082 13.9226C338.707 13.9226 339.248 14.0532 339.706 14.3146C340.172 14.5666 340.532 14.9212 340.784 15.3786C341.045 15.8359 341.176 16.3679 341.176 16.9746C341.176 17.6652 341.008 18.2859 340.672 18.8366C340.336 19.3872 339.878 19.8212 339.3 20.1386C338.721 20.4466 338.063 20.6006 337.326 20.6006Z" fill="#3B3F44"/>
<path d="M191.169 15.4326L322.169 15.4325" stroke="#DDDDE4" stroke-width="2" stroke-linecap="round"/>
<rect x="162.169" y="1.43256" width="28" height="28" rx="14" stroke="#DDDDE4" stroke-width="2"/>
<path d="M172.826 20.4326V18.7526L175.626 15.8686C176.176 15.2992 176.592 14.8512 176.872 14.5246C177.161 14.1886 177.357 13.9086 177.46 13.6846C177.572 13.4606 177.628 13.2412 177.628 13.0266C177.628 12.6439 177.502 12.3452 177.25 12.1306C177.007 11.9066 176.699 11.7946 176.326 11.7946C175.943 11.7946 175.602 11.9066 175.304 12.1306C175.005 12.3452 174.786 12.6766 174.646 13.1246L172.756 12.5086C172.868 11.9672 173.101 11.4959 173.456 11.0946C173.81 10.6932 174.24 10.3852 174.744 10.1706C175.248 9.94656 175.775 9.83456 176.326 9.83456C177.016 9.83456 177.623 9.95589 178.146 10.1986C178.668 10.4412 179.074 10.7819 179.364 11.2206C179.653 11.6592 179.798 12.1726 179.798 12.7606C179.798 13.1339 179.732 13.5026 179.602 13.8666C179.471 14.2212 179.27 14.5852 179 14.9586C178.738 15.3226 178.398 15.7192 177.978 16.1486L175.584 18.6126H179.896V20.4326H172.826Z" fill="#3B3F44"/>
<path d="M95.6694 15.4326L161.169 15.4326" stroke="#DDDDE4" stroke-width="2" stroke-linecap="round"/>
<path d="M30.1694 15.4326L95.6694 15.4326" stroke="#FFC200" stroke-width="2" stroke-linecap="round"/>
<rect x="0.669434" y="0.932556" width="29" height="29" rx="14.5" fill="#FFC200"/>
<rect x="0.669434" y="0.932556" width="29" height="29" rx="14.5" stroke="#FFC200"/>
<path d="M15.0993 20.6476V12.0516H13.0693V10.2176H17.2693V20.6476H15.0993Z" fill="white"/>
</svg>
