<svg width="41" height="41" viewBox="0 0 41 41" fill="none" xmlns="http://www.w3.org/2000/svg">
<rect x="0.950439" y="0.948914" width="40" height="40" rx="20" fill="#200A57"/>
<path fill-rule="evenodd" clip-rule="evenodd" d="M21.0024 10.9489H20.8984C19.2184 10.9489 17.8884 10.9489 16.8464 11.0909C15.7744 11.2379 14.9064 11.5469 14.2224 12.2429C13.5384 12.9389 13.2344 13.8229 13.0904 14.9129C12.9504 15.9729 12.9504 17.3269 12.9504 19.0359V22.8619C12.9504 24.5719 12.9504 25.9259 13.0904 26.9849C13.2344 28.0749 13.5384 28.9589 14.2224 29.6549C14.9064 30.3509 15.7744 30.6599 16.8464 30.8069C17.8874 30.9489 19.2184 30.9489 20.8984 30.9489H21.0024C22.6824 30.9489 24.0124 30.9489 25.0544 30.8069C26.1264 30.6599 26.9944 30.3509 27.6784 29.6549C28.3624 28.9589 28.6664 28.0749 28.8104 26.9849C28.9504 25.9249 28.9504 24.5709 28.9504 22.8619V19.0359C28.9504 17.3259 28.9504 15.9719 28.8104 14.9129C28.6664 13.8229 28.3624 12.9389 27.6784 12.2429C26.9944 11.5469 26.1264 11.2379 25.0544 11.0909C24.0134 10.9489 22.6824 10.9489 21.0024 10.9489ZM17.5224 27.4609C17.5214 27.37 17.5383 27.2799 17.5722 27.1956C17.6061 27.1112 17.6563 27.0345 17.7199 26.9696C17.7836 26.9047 17.8594 26.8531 17.9431 26.8176C18.0267 26.7822 18.1166 26.7636 18.2074 26.7629H23.6934C24.0724 26.7629 24.3794 27.0749 24.3794 27.4609C24.3804 27.5518 24.3633 27.6419 24.3293 27.7262C24.2953 27.8105 24.245 27.8872 24.1812 27.9519C24.1175 28.0167 24.0416 28.0682 23.9579 28.1036C23.8742 28.1389 23.7843 28.1574 23.6934 28.1579H18.2074C18.1166 28.1574 18.0267 28.1389 17.943 28.1036C17.8593 28.0682 17.7834 28.0167 17.7196 27.9519C17.6559 27.8872 17.6056 27.8105 17.5716 27.7262C17.5375 27.6419 17.5215 27.5518 17.5224 27.4609Z" fill="white"/>
</svg>
